<?xml version="1.0" encoding="utf-8"?>
<!-- Generator: Adobe Illustrator 22.0.0, SVG Export Plug-In . SVG Version: 6.00 Build 0)  -->
<svg version="1.1" id="Camada_1" xmlns="http://www.w3.org/2000/svg" xmlns:xlink="http://www.w3.org/1999/xlink" x="0px" y="0px"
	 viewBox="0 0 150 150" style="enable-background:new 0 0 150 150;" xml:space="preserve">
<style type="text/css">
	.st0{display:none;}
	.st1{display:inline;fill:#8A8B8F;}
	.st2{display:inline;fill:#22325D;}
	.st3{display:inline;fill:#737B90;}
	.st4{display:inline;fill:#1A2D5E;}
	.st5{display:inline;fill:#F1F2F6;}
	.st6{display:inline;fill:#F5F5F5;}
	.st7{display:inline;fill:#010101;}
	.st8{display:inline;fill:#B4A068;}
	.st9{display:inline;fill:#F6F6F6;}
	.st10{display:inline;fill:#F2F3F0;}
	.st11{display:inline;fill:#2F4836;}
	.st12{display:inline;fill:#314A39;}
	.st13{display:inline;fill:#877B29;}
	.st14{display:inline;}
	.st15{display:inline;fill:#D0B029;}
	.st16{display:inline;fill:#9C4417;}
	.st17{display:inline;fill:#D49A39;}
	.st18{display:inline;fill:#9F3A26;}
	.st19{display:inline;fill:#FBF3E6;}
	.st20{display:inline;fill:#BDCCD4;}
	.st21{display:inline;fill:#BDCCD4;stroke:#F2F2F2;stroke-width:2.126;stroke-miterlimit:10;}
	.st22{display:inline;fill:#606060;}
	.st23{display:inline;fill:#F2F2F2;}
	.st24{fill:#9F3A26;}
	.st25{fill:#D0B029;}
	.st26{fill:#9F3A26;stroke:#D49A39;stroke-width:2.126;stroke-miterlimit:10;}
	.st27{fill:#F2F2F2;}
</style>
<g class="st0">
	<path class="st1" d="M75,150.1c-41.5,0-75.1-33.7-75-75.2c0-41.5,33.7-75.1,75.2-75c41.3,0.1,74.8,33.7,74.8,75.2
		C149.9,116.4,116.3,150.1,75,150.1z M74.8,145.6c38.4,0.5,70.5-31.7,70.8-70.2C145.9,36.4,114,3.9,75.1,3.8
		c-38.8,0-71,31.3-70.9,70.9C4.2,116,38.1,146,74.8,145.6z"/>
	<path class="st2" d="M74.8,145.6C38.1,146,4.2,116,4.1,74.8c0-39.6,32.1-70.9,70.9-70.9c38.9,0,70.9,32.5,70.5,71.6
		C145.3,113.9,113.2,146.1,74.8,145.6z M75,6.3C38.2,5.8,6.6,36.3,6.5,74.5c-0.1,38,30.4,68.8,68.2,68.9
		c37.7,0.1,68.6-30.1,68.6-68.7C143.3,35.6,111.3,5.9,75,6.3z"/>
	<path class="st3" d="M75,6.3c36.3-0.4,68.3,29.3,68.3,68.4c0,38.6-30.9,68.8-68.6,68.7c-37.8-0.1-68.3-30.9-68.2-68.9
		C6.6,36.3,38.2,5.8,75,6.3z M7.9,74.6c-0.6,36.7,30.1,67.3,66.7,67.5c36.9,0.2,67.5-30.3,67.5-67.3c-0.1-37.2-30.1-67.4-67.2-67.4
		C37.7,7.4,7.5,38.1,7.9,74.6z"/>
	<path class="st4" d="M7.9,74.6C7.5,38.1,37.7,7.4,74.8,7.4c37.1,0,67.1,30.2,67.2,67.4c0.1,37-30.5,67.5-67.5,67.3
		C37.9,141.9,7.3,111.3,7.9,74.6z M78.2,18.2c-0.9,0.1-2.3,0.1-3.7,0.2c-34,2.3-58.4,34.7-51.1,68c5.5,25.1,25.9,43.1,51.6,44.8
		c16.5,1.1,30.8-4.5,42.8-15.9c1.6-1.5,2.2-3.3,0.7-5.1c-1.5-1.8-3.3-1.6-5.1-0.3c-1.6,1.1-3.2,2.1-4.9,3c-0.9,0.5-2,1.7-2.8,0.9
		c-1-1-1.8-2.4-1.4-4.1c0.1-0.5,0.3-1,0.4-1.4c4.6-15.3,11-29.9,18.4-44c3.9-7.5,0.1-16.1-8.1-18.1c-4.7-1.1-9.3-0.3-13.9,0.9
		c-5.3,1.4-10.6,2.4-16.1,2.4c-8.1,0-13.7-3.6-17.2-10.8c-0.6-1.3-0.6-1.9,0.8-2.6c8.5-4.1,17.3-5.6,26.7-4.1
		c6.6,1.1,12.6,3.6,18,7.4c1.8,1.2,3.4,1.3,5-0.3c1.4-1.4,1.1-3.4-0.6-5.1c-0.3-0.4-0.7-0.7-1.1-1C105.6,23.2,93.1,18.5,78.2,18.2z"
		/>
	<path class="st5" d="M78.2,18.2c14.9,0.3,27.5,5.1,38.2,14.7c0.4,0.3,0.7,0.7,1.1,1c1.7,1.7,1.9,3.7,0.6,5.1
		c-1.5,1.6-3.2,1.5-5,0.3c-5.4-3.9-11.4-6.4-18-7.4c-9.3-1.5-18.2-0.1-26.7,4.1c-1.4,0.7-1.4,1.3-0.8,2.6
		c3.5,7.3,9.2,10.8,17.2,10.8c5.5,0,10.8-1,16.1-2.4c4.6-1.2,9.2-2,13.9-0.9c8.2,2,12,10.7,8.1,18.1c-7.4,14.1-13.8,28.7-18.4,44
		c-0.1,0.5-0.3,1-0.4,1.4c-0.4,1.7,0.5,3.1,1.4,4.1c0.8,0.9,1.9-0.4,2.8-0.9c1.7-0.9,3.3-1.9,4.9-3c1.8-1.3,3.6-1.5,5.1,0.3
		c1.5,1.8,1,3.6-0.7,5.1c-12,11.4-26.3,17-42.8,15.9c-25.7-1.7-46.1-19.7-51.6-44.8c-7.3-33.3,17.1-65.7,51.1-68
		C75.9,18.3,77.3,18.2,78.2,18.2z M79.5,128.5c5.2,0.2,11.3-1,17.3-3.1c7-2.6,13.2-6.5,18.7-11.6c0.5-0.5,1.4-1,0.7-1.8
		c-0.6-0.6-1.2,0.2-1.7,0.5c-0.4,0.2-0.7,0.5-1,0.7c-9.5,6.1-19.9,8.7-31.2,7.3C57,117.1,39.1,94.1,42.3,68.9
		c3.9-30.5,35.5-48.7,63.9-36.6c2.8,1.2,5.4,2.7,7.9,4.4c0.6,0.4,1.2,0.9,1.8,0.3c0.7-0.7-0.3-1.1-0.6-1.6c-0.1-0.2-0.4-0.4-0.5-0.5
		c-12.5-11-27-15.6-43.5-13.5c-28.8,3.7-49.7,30.8-46,59.7C28.6,108.4,51,128.4,79.5,128.5z M65.6,40.6c-0.4,3.7-0.8,6.9-1.2,10
		c-0.1,1-0.2,2,0.9,2.6c2,1.1,1.8,2.9,1.3,4.6c-0.3,1.1-0.7,2.2-0.7,3.4c-0.1,4.9-0.2,9.7,0.5,14.6c1.6,11.7,5.8,22.4,13.5,31.4
		c1.6,1.8,3.1,3.4,0.4,6.2c1.9-0.6,3.6,0.4,4.2-0.8c0.9-1.9,2.4-1.5,3.8-1.5c2.6,0,5.2,0,7.8,0c0.6,0,1.6-0.3,1.9,0.4
		c0.9,2.4,2.7,1.5,4.4,1.5c-1.3-2.5-1.3-2.5-0.5-5.1c4.8-15.8,11.3-30.8,19-45.4c2.7-5.1,0.1-11.7-5.4-13.6c-2.7-0.9-5.5-1-8.2-0.5
		c-3.9,0.7-7.8,1.8-11.8,2.6C83.7,53.2,72.8,53.2,65.6,40.6z M62.9,39.5C46.4,50.5,38.1,75.9,51,97.3c10.2,16.8,36.5,26.7,49.5,18.4
		c-2.3,0.3-4.2,0.2-5.2-1.9c-2.9,0.9-6.5-2-8.8,1.7c-0.2,0.3-0.9,0.3-1.4,0.3c-1.8,0-3.5-0.1-5.3,0c-1.6,0.1-1.7-0.5-1.4-1.9
		c0.4-1.4,1.3-2.8-0.2-4.4C66.9,96.4,62.7,80.9,63,63.9c0-2.1-0.1-4.2,0.8-6.2c0.6-1.2,0.4-2.1-0.7-2.7c-1.4-0.8-1.6-1.8-1.4-3.3
		C62.2,47.7,62.5,43.8,62.9,39.5z"/>
	<path class="st1" d="M79.5,128.5c-28.4-0.2-50.8-20.2-54.3-47.4c-3.7-28.9,17.2-56.1,46-59.7c16.5-2.1,31,2.5,43.5,13.5
		c0.2,0.2,0.4,0.3,0.5,0.5c0.4,0.5,1.3,0.9,0.6,1.6c-0.6,0.6-1.2,0.1-1.8-0.3c-2.5-1.7-5.1-3.2-7.9-4.4c-28.3-12.1-60,6.1-63.9,36.6
		c-3.2,25.1,14.7,48.2,39.8,51.4c11.3,1.5,21.6-1.2,31.2-7.3c0.4-0.2,0.7-0.5,1-0.7c0.5-0.3,1.1-1.1,1.7-0.5
		c0.7,0.8-0.2,1.4-0.7,1.8c-5.4,5.1-11.6,9.1-18.7,11.6C90.8,127.6,84.6,128.7,79.5,128.5z"/>
	<path class="st1" d="M65.6,40.6C72.8,53.2,83.7,53.2,95.4,51c3.9-0.7,7.8-1.8,11.8-2.6c2.7-0.5,5.5-0.4,8.2,0.5
		c5.5,1.9,8.1,8.4,5.4,13.6c-7.7,14.6-14.2,29.6-19,45.4c-0.8,2.6-0.8,2.6,0.5,5.1c-1.7,0-3.5,0.9-4.4-1.5c-0.2-0.7-1.2-0.4-1.9-0.4
		c-2.6,0-5.2,0-7.8,0c-1.4,0-2.9-0.4-3.8,1.5c-0.6,1.2-2.3,0.2-4.2,0.8c2.7-2.8,1.2-4.4-0.4-6.2c-7.8-9-11.9-19.7-13.5-31.4
		c-0.7-4.8-0.6-9.7-0.5-14.6c0-1.2,0.4-2.3,0.7-3.4c0.5-1.8,0.7-3.5-1.3-4.6c-1.1-0.6-1-1.6-0.9-2.6C64.8,47.5,65.1,44.4,65.6,40.6z
		 M75.4,64.2c-0.3,0-0.5,0.1-0.8,0.1c-0.1,2.4-0.2,4.8-0.4,7.1c-0.7,9.8,1.3,19,6.2,27.6c1.3,2.3,2.9,4.5,4.9,6.4
		c0.3,0.3,0.8,0.7,1,0.6c0.5-0.1,0.7-0.7,0.7-1.2c-0.1-0.7-0.3-1.3-0.5-2c-2.1-7.2-4.1-14.4-6.2-21.5C78.7,75.5,77.1,69.8,75.4,64.2
		z M87.7,102.6c1.4-2.1,1.9-3.8,1.2-6.1c-2.8-9.2-5.4-18.5-8-27.8C80,65.6,79,62.5,78,59.4c-0.2-0.7-0.5-1-1.2-1
		c-0.8,0-0.9,0.7-0.9,1.3c0,1.2-0.1,2.4,0.2,3.5c2.3,6.5,3.9,13.2,5.9,19.7C83.9,89.3,85.8,95.8,87.7,102.6z M90.2,97.1
		c1.5-1.9,2-3.4,1.4-5.4c-1.9-6.2-3.6-12.5-5.4-18.8c-1.2-4.2-2.5-8.4-3.6-12.6c-0.4-1.5-1.4-1.6-2.5-1.4c-1.1,0.2-0.5,1-0.3,1.6
		C83.2,72.6,86.7,84.7,90.2,97.1z M94.7,88.8c-0.1-0.5-0.1-0.8-0.2-1.1c-2.6-9.2-5.3-18.3-7.9-27.5c-0.3-1.2-1-1.3-2-1.1
		c-1.4,0.3-0.9,1.1-0.7,1.9c1,3.5,2,7.1,3.1,10.6c1.7,6.1,3.5,12.2,5.3,18.3c0.2,0.6,0.1,1.6,1,1.5c0.4,0,0.8-0.8,1-1.3
		C94.5,89.6,94.6,89.1,94.7,88.8z M95.7,87.4c1.2-1.7,2.2-2.5,1.7-4.3c-2.3-7.9-4.6-15.8-6.8-23.7c-0.4-1.3-1.1-1.3-2.1-1.1
		c-1.3,0.3-0.9,1.1-0.6,2c0.6,2,1.1,4,1.7,6C91.6,73.2,93.5,80.1,95.7,87.4z M98.5,82.8c1.4-1.5,2.2-2.5,1.7-4.3
		c-2-6.7-3.9-13.5-5.9-20.3c-0.2-0.7-0.2-1.6-1.4-1.2c-1,0.3-1.6,0.8-1.3,2C93.9,66.8,96.1,74.6,98.5,82.8z M103.3,75.6
		c-0.1-0.5-0.2-1-0.3-1.5c-1.6-5.5-3.2-10.9-4.7-16.4c-0.3-1-0.3-2.3-2-1.9c-1.8,0.5-0.9,1.7-0.7,2.6c1.6,5.9,3.3,11.7,5,17.6
		c0.2,0.7-0.4,2,0.9,1.9C102.7,77.9,103.2,76.7,103.3,75.6z M104.3,74.6c1.8-1.4,2.1-2.7,1.6-4.5c-1.4-4.7-2.7-9.5-4.1-14.2
		c-0.2-0.7-0.1-1.8-1.5-1.4c-1.1,0.3-1.5,0.9-1.2,2C100.8,62.4,102.5,68.4,104.3,74.6z M109.4,68c-0.1-0.5-0.2-1-0.3-1.5
		c-1.1-3.8-2.3-7.5-3.3-11.3c-0.3-1.2-0.7-1.8-2-1.5c-1.5,0.3-0.9,1.3-0.7,2.1c1.2,4.2,2.4,8.3,3.6,12.5c0.2,0.7-0.4,2,0.9,1.9
		C108.7,70.3,109.2,69.2,109.4,68z M117.2,59.2c-0.1-3.7-2.7-6-5.4-6c-1.2,0-1.1,0.6-0.9,1.5c0.7,2.6,1.7,5.1,2,7.8
		c0.1,0.5,0.4,1.7,1.5,0.8C116,62,117.3,60.5,117.2,59.2z M106.3,53.5c0.4,1.1,0.7,2.1,1,3c0.9,3,1.8,6.1,2.7,9.1
		c0.4,1.4,0.9,1.4,1.8,0.4c0.6-0.7,0.8-1.2,0.5-2.2c-0.9-2.8-1.7-5.6-2.3-8.4C109.5,53.2,108.4,52.8,106.3,53.5z"/>
	<path class="st4" d="M62.9,39.5c-0.4,4.3-0.7,8.2-1.3,12.1c-0.2,1.6,0.1,2.6,1.4,3.3c1.2,0.6,1.3,1.5,0.7,2.7
		c-0.9,1.9-0.7,4.1-0.8,6.2c-0.3,17,3.9,32.6,15.3,45.7c1.4,1.6,0.6,3,0.2,4.4c-0.4,1.4-0.3,2,1.4,1.9c1.8-0.1,3.5,0,5.3,0
		c0.5,0,1.2,0,1.4-0.3c2.4-3.7,6-0.8,8.8-1.7c1.1,2.1,2.9,2.2,5.2,1.9c-13,8.3-39.4-1.6-49.5-18.4C38.1,75.9,46.4,50.5,62.9,39.5z"
		/>
	<path class="st6" d="M75.4,64.2c1.7,5.7,3.3,11.4,5,17.1c2.1,7.2,4.1,14.3,6.2,21.5c0.2,0.6,0.4,1.3,0.5,2c0.1,0.5-0.2,1.1-0.7,1.2
		c-0.3,0.1-0.7-0.3-1-0.6c-1.9-1.9-3.5-4.1-4.9-6.4c-4.9-8.5-6.8-17.8-6.2-27.6c0.2-2.4,0.3-4.8,0.4-7.1
		C74.9,64.2,75.2,64.2,75.4,64.2z"/>
	<path class="st6" d="M87.7,102.6c-2-6.8-3.8-13.3-5.7-19.8c-2-6.6-3.5-13.3-5.9-19.7c-0.4-1.1-0.2-2.3-0.2-3.5
		c0-0.6,0.1-1.2,0.9-1.3c0.7,0,1,0.3,1.2,1c0.9,3.1,2,6.2,2.9,9.4c2.7,9.3,5.2,18.6,8,27.8C89.6,98.8,89.2,100.5,87.7,102.6z"/>
	<path class="st6" d="M90.2,97.1c-3.6-12.5-7-24.5-10.5-36.6c-0.2-0.6-0.7-1.4,0.3-1.6c1.1-0.2,2.1-0.1,2.5,1.4
		c1.1,4.2,2.4,8.4,3.6,12.6c1.8,6.3,3.5,12.6,5.4,18.8C92.2,93.8,91.7,95.2,90.2,97.1z"/>
	<path class="st6" d="M94.7,88.8c-0.1,0.4-0.2,0.9-0.5,1.3c-0.3,0.5-0.7,1.3-1,1.3c-0.9,0.1-0.8-0.9-1-1.5
		c-1.8-6.1-3.5-12.2-5.3-18.3c-1-3.5-2-7.1-3.1-10.6c-0.2-0.8-0.7-1.6,0.7-1.9c1.1-0.2,1.7-0.2,2,1.1c2.6,9.2,5.2,18.4,7.9,27.5
		C94.6,88,94.7,88.3,94.7,88.8z"/>
	<path class="st6" d="M95.7,87.4c-2.1-7.4-4.1-14.2-6.1-21c-0.6-2-1.1-4-1.7-6c-0.2-0.8-0.6-1.7,0.6-2c1-0.2,1.7-0.2,2.1,1.1
		c2.2,7.9,4.4,15.8,6.8,23.7C97.9,84.9,96.8,85.8,95.7,87.4z"/>
	<path class="st6" d="M98.5,82.8c-2.4-8.2-4.6-16-6.9-23.8c-0.4-1.2,0.3-1.7,1.3-2c1.2-0.4,1.2,0.5,1.4,1.2
		c1.9,6.8,3.8,13.5,5.9,20.3C100.7,80.3,99.9,81.3,98.5,82.8z"/>
	<path class="st6" d="M103.3,75.6c-0.1,1.2-0.6,2.3-1.8,2.4c-1.3,0.1-0.7-1.2-0.9-1.9c-1.7-5.9-3.4-11.7-5-17.6
		c-0.3-0.9-1.1-2.1,0.7-2.6c1.7-0.4,1.7,0.9,2,1.9c1.6,5.5,3.2,10.9,4.7,16.4C103.1,74.6,103.2,75.1,103.3,75.6z"/>
	<path class="st6" d="M104.3,74.6c-1.8-6.2-3.5-12.1-5.2-18.1c-0.3-1.1,0.1-1.7,1.2-2c1.4-0.4,1.3,0.7,1.5,1.4
		c1.4,4.7,2.7,9.5,4.1,14.2C106.5,71.8,106.1,73.2,104.3,74.6z"/>
	<path class="st6" d="M109.4,68c-0.1,1.2-0.7,2.3-1.8,2.3c-1.3,0.1-0.7-1.3-0.9-1.9c-1.2-4.2-2.4-8.3-3.6-12.5
		c-0.2-0.8-0.9-1.8,0.7-2.1c1.3-0.3,1.7,0.2,2,1.5c1,3.8,2.2,7.5,3.3,11.3C109.2,67,109.3,67.5,109.4,68z"/>
	<path class="st6" d="M117.2,59.2c0.1,1.2-1.2,2.7-2.8,4.1c-1.1,0.9-1.5-0.3-1.5-0.8c-0.3-2.7-1.3-5.2-2-7.8
		c-0.2-0.8-0.3-1.4,0.9-1.5C114.5,53.2,117.1,55.6,117.2,59.2z"/>
	<path class="st6" d="M106.3,53.5c2.1-0.8,3.2-0.3,3.7,1.9c0.6,2.8,1.5,5.7,2.3,8.4c0.3,1,0.1,1.5-0.5,2.2c-0.9,1-1.4,0.9-1.8-0.4
		c-0.8-3.1-1.8-6.1-2.7-9.1C107,55.6,106.7,54.7,106.3,53.5z"/>
</g>
<g class="st0">
	<path class="st7" d="M135.9,57c-2.7,3.3-4,7.4-5.7,11.2c-0.9,2.1-1.7,4.2-2.6,6.3c-0.1,0.3-0.8,0.8,0,1.1c0,0-0.2,0.5-0.3,0.7
		c-3.4,5.8-6.9,11.6-11,16.9c-1.6,2.1-3.1,4.3-4,6.9c0.4,0.1,0.7,0.2,1,0.2c0,0.3-0.2,0.4-0.4,0.6c-7.5,5.4-15.1,10.6-23.4,14.8
		c-1.8,0.9-2.7,1.1-3.9,1c0.9-1.7-0.1-2.7-1.1-3.7c-0.9-0.8-1.9-1.5-3.1-1.7c-1.5-0.3-2.5,0.3-2.5,1.8c-0.1,3-0.7,5.9-1,8.9
		c-0.1,1,0,1.9,0.2,2.8c0.3,1.2,0,2.2-0.8,3.1c-1.2,1.5-1,4.3,0.4,5.7c0.1,0.1,0.2,0.2,0.3,0.2c0.6,0.1,0.6,0.1,0.7,0.7
		c0.2,1.2,0.3,2.3-0.3,3.6c-0.2-1-1-0.7-1.5-0.9c0.1-0.3,0.7-0.2,0.6-0.7c-0.1-0.5-0.6-0.3-1-0.5c0.6-0.2,0.4-0.6,0.1-0.9
		c-0.4-0.6-0.7-1.2-0.9-2c-0.4-1.7-2.3-2.2-3.7-1.1c-1.7,1.3-1.8,3.2-2.1,4.9c-0.2,0.9,0.8,1.3,1.5,1.9c-0.5,0.2-0.8,0-1.2-0.1
		c-0.8-0.3-1.6-0.7-2.6-0.2c-0.5,0.3-0.8-0.1-0.9-0.6c-0.6-2.8-0.4-5.5,1.5-7.8c0.6-0.7,1-1.6,1.3-2.5c1.5-4.4,2.5-8.8,2.4-13.5
		c0-2.4-1.1-3.1-3.6-2.9c-2,0.2-3.8,1.4-5.2,2.9c-0.6,0.7-0.9,1.4-0.3,2.3c-0.9,0.3-1.7-0.1-2.5-0.4c-2.9-1.3-5.6-2.9-8.3-4.6
		c-5.7-3.7-11.3-7.5-16.7-11.8c0.6-0.2,1.1,0.3,1.7,0.1c-0.3-1.3-0.9-2.5-1.6-3.6c-0.8-1.3-1.6-2.5-2.5-3.7
		c-4.1-5.4-7.4-11.2-10.7-17.2c-0.2-0.3-0.3-0.6-0.4-0.9c0,0,0.1-0.1,0.1-0.1c0.4-0.2,0.2-0.5,0.1-0.8c-1.8-4.7-3.6-9.4-5.6-14.1
		c-0.6-1.4-1.4-2.7-2.3-3.9c0-0.1,0.1-0.2,0.1-0.2c1.3,0.9,2.2,2.2,3.2,3.5c1.3,1.8,2.4,3.7,3.5,5.6c2.2,3.8,5.2,6.7,9.4,8.4
		c0.1-1.1-0.6-2.1-0.8-3.2c3.5,4.8,7.6,8.5,12.7,11.2c0.6,0.3,1.3,0.6,2,0.9c1.4,0.5,1.6,0.4,2-1.1c0.6,1.5,1.2,3.1,1.8,4.5
		c1.5,3.4,3.2,6.7,5.8,9.5c0.3,0.3,0.6,0.6,1,0.9c0.9,0.9,1,0.8,1.5-0.4c0-0.1,0.1-0.2,0.1-0.3c0.1,4.9,1.8,8.9,6.3,11.4
		c-0.6-0.1-1,0.2-1.2,0.7c-0.1,0.6,0,1.1,0.5,1.5c1.1,0.9,2.5,0.4,3.3-1c0.2-0.4,0.4-0.8,1-0.9c0.6-0.1,0.7-0.8,0.8-1.4
		c0-0.7,0-1.5,0-2.3c1.1,0.8,2.3,1.4,3.6,2.1c-0.8-2.3-1.5-4.4-2.2-6.6c-1.6-4.7-2.8-9.6-3.3-14.6c-0.6-6.1,0.3-12,2.9-17.7
		c2.2-4.7,4.7-9.3,6.9-14.1c1.3-2.9,2.5-5.9,3-9.1c0.4-2.4-0.2-4.7-0.7-6.9c-0.9-3.8-2.4-7.5-3.2-11.3C73,20,73.1,15.4,75.2,11
		c1.2-2.5,2.3-5.2,2.7-8c0.1-1,0.2-1.9,0.3-3.1c1.2,2.4,1.6,4.7,1,7.2c-0.5,2.2-1.1,4.3-1.6,6.5c-0.8,4-0.1,7.9,1.6,11.6
		c1.3,2.9,2.6,5.9,3.6,8.9c1.5,4.4,1.5,8.7,0.6,13.2c-1.2,5.9-3.6,11.5-5.7,17.1c-1.2,3.3-2.5,6.5-3.2,10c-0.6,3.6-0.5,7.1-0.1,10.7
		c0.6,4.8,2.3,9.2,3.4,13.9c0.4,1.8,0.8,3.6,1,5.6c1.1-0.7,1.8-1.7,2.7-2.6c0.2,1.1-0.2,2.1,0,3.2c0.1,0.7,0.2,1.5,1.2,1.6
		c0.3,0,0.3,0.4,0.4,0.7c0.6,1.2,1.5,1.7,2.6,1.6c1-0.1,1.6-0.9,1.4-1.8c-0.1-0.5-0.3-0.9-0.9-0.8c-0.1-0.1-0.1-0.1-0.2-0.2
		c0.3-0.4,0.7-0.6,1.2-0.8c1.3-0.5,2.2-1.5,2.9-2.7c1-1.6,1.7-3.3,2.3-5c0.3-0.8-0.2-1.7,0.1-2.6c0,0,0.1,0,0.1,0.1
		c0.6,1.4,0.6,1.4,1.7,0.4c4.2-3.9,7-8.6,8.6-14.1c0-0.1,0.1-0.2,0.1-0.3c0.5,0.3,0.3,1.2,1,1.1c0.5-0.1,1.1-0.2,1.6-0.4
		c4.1-1.5,7.4-4.2,10.5-7.1c1.5-1.3,2.8-2.8,4-4.7c0,1.3-0.9,2.2-0.8,3.4c4.2-1.6,7.3-4.3,9.6-8.1c1.4-2.3,2.8-4.6,4.5-6.7
		c0.7-0.8,1.3-1.6,2.2-2.2C135.8,56.9,135.8,56.9,135.9,57z M67.4,135.5c1.3-0.8,0.6-1.8,0.4-2.8C66.9,133.6,66.8,134.2,67.4,135.5z
		"/>
	<path class="st8" d="M71.5,21c0.3,3.7,1.5,7.2,2.6,10.7c0.8,2.6,1.5,5.2,2,7.9c0.4,2.2-0.1,4.3-0.8,6.4c-1.3,4-3.3,7.8-5.2,11.5
		c-2.1,4.2-4.2,8.4-5.7,12.9c-1.5,4.4-1.5,8.9-1.1,13.5c0.4,5.5,1.8,10.7,3.9,15.8c0.1,0.2,0.3,0.4,0.1,0.8c-0.7-0.5-1.3-1-2-1.6
		c-0.1,0.9-0.1,1.7-0.1,2.5c0,1,0,2,0,3c0,0.2,0,0.5-0.2,0.6c-0.2,0.1-0.4-0.1-0.6-0.2c-0.7-0.8-1.6-1.3-2.5-1.7
		c-0.6-0.3-0.9-0.8-1.2-1.3c-1.2-2-2-4.1-2.1-6.5c0-2-0.6-3.9-0.9-6.1c-0.9,1.3-1.7,2.5-2.6,3.8c-5.3-6.3-7.2-13.9-9.5-21.7
		c-0.4,1.1-0.4,2-0.6,2.9c-0.3,1.4-0.5,2.9-0.6,4.3c-0.1,0.8-0.3,0.8-1,0.5c-2.7-1.2-4.9-3.1-7.2-5c-0.8-0.7-1.6-1.4-2.4-2
		c-2.3-1.9-3.7-4.3-4.6-7.1c0-0.1-0.1-0.2-0.1-0.4c0-0.1-0.1-0.1-0.2-0.2c-0.7,1.3-1,2.7-0.9,4.2c0,0.3,0.2,0.7-0.1,0.8
		c-0.3,0.2-0.6-0.1-0.8-0.3c-1.5-1.2-2.8-2.8-3.8-4.5c-1.1-1.6-2-3.4-3-5c0.1-0.2,0.1-0.4,0.2-0.6c3.8-10.2,10-18.7,18.5-25.4
		C48.5,25.9,59.4,21.8,71.5,21z"/>
	<path class="st8" d="M129.8,60.3c-2.5,5-5.8,9.2-8,9.9c-0.2-1.6-0.6-3.2-1.3-4.8c-0.1,0.1-0.2,0.1-0.2,0.2c-1.3,3.9-3.9,6.7-7,9.2
		c-2.3,1.9-4.7,3.7-7.4,4.9c-0.7,0.3-0.9,0.3-1-0.6c-0.1-2.7-0.3-5.4-0.7-8.1c-0.5,1.3-0.9,2.6-1.4,4c-1,3-1.9,6-3,9
		c-1.2,3.2-3.1,6.1-5.4,8.7c-0.5,0.6-0.7,0.4-1.1-0.1c-0.6-1-1.2-1.9-2-3.1c-0.4,2.1-0.7,4-1,5.9c-0.3,2.1-0.9,4.2-1.9,6.1
		c-0.5,1-1.2,1.8-2.3,2.3c-0.6,0.2-1.1,0.6-1.6,1.1c-0.2,0.2-0.5,0.5-0.8,0.4c-0.3-0.2-0.3-0.5-0.3-0.8c0.3-1.9,0-3.8-0.4-5.7
		c-0.1-0.3,0-0.6-0.3-0.8c-0.8,0.8-1.6,1.6-2.5,2.4c-0.3-0.3-0.3-0.8-0.4-1.1c-0.9-3.4-1.9-6.7-2.7-10.1c-1.9-7.7-1.3-15.2,1.8-22.6
		c2.3-5.4,4.4-10.9,5.9-16.7c1.1-4.5,1.8-9.1,0.6-13.7c-1-3.8-2.5-7.4-4.1-11c-0.5-1.2-1.2-2.4-1.3-3.7c1.8-0.1,3.6,0.3,5.4,0.6
		c15.7,3.1,28.2,11.2,37.4,24.4C125.9,50.6,128.2,55.3,129.8,60.3z"/>
	<path class="st8" d="M80.9,136.5c0-2.4-0.8-4.5-1.8-6.6c-0.2-0.5-0.3-0.8,0.1-1.3c0.8-1.1,1.2-2.4,0.9-3.9c-0.5-2-0.1-3.9,0.2-5.8
		c0.3-1.8,0.5-3.7,0.6-5.7c1.2,0.3,2,1,2.8,1.8c0.3,0.3,0.1,0.5-0.1,0.7c-0.5,0.4-1.3,0.7-1.2,1.2c0.1,0.5,1,0.7,1.5,1.1
		c1.4,1.1,3,1,4.6,0.4c3.2-1.2,6.2-2.9,9.1-4.7c4.7-2.9,9.4-5.8,13.8-9.1c1.3-1,2.6-2.1,3.6-3.5c0.5-0.7,1-1.4,0.4-2.3
		c-0.2-0.3,0.1-0.6,0.2-0.9c1.4-2.3,3.1-4.3,4.6-6.5c3.2-4.6,6.2-9.4,9-14.3c1.1-2,1.6-4.3,2.5-6.5c0.1-0.3,0.1-0.7,0.4-0.9
		c0,0.1,0.1,0.2,0.1,0.2c1,6.7,1,13.5-0.4,20.1c-4.3,19.6-15.7,33.6-34,42C92.5,134.6,86.8,136.1,80.9,136.5z"/>
	<path class="st8" d="M17.9,68.6c0.3,0.5,0.5,1.1,0.6,1.7c0.5,3.6,2.3,6.7,4.1,9.9c3,5.2,6.1,10.2,9.8,15c0.4,0.5,0.7,1.1,1.1,1.6
		c0.4,0.6,0.6,1-0.2,1.4c-0.6,0.3-0.2,0.9,0,1.3c0.8,1.5,2,2.6,3.3,3.5c6.8,5.2,13.9,10.1,21.4,14.1c0.9,0.5,1.8,0.9,2.8,1.2
		c1.3,0.4,2.6,0.4,3.8-0.5c0.2-0.1,0.4-0.2,0.6-0.3c1.3-0.8,1.3-0.8,0.2-1.8c-0.2-0.2-0.6-0.3-0.3-0.6c1.2-0.9,2.4-1.8,4-1.9
		c0.6,0,0.8,0.2,0.8,0.8c0.2,4.6-1,8.9-2.4,13.2c-0.2,0.5-0.5,1.1-0.8,1.5c-1.6,2.1-2.5,4.4-2.3,7.2c-0.2,0-0.3,0-0.5,0
		c-14.6-3-26.5-10.4-35.3-22.3C18.6,100.1,15.2,85.1,17.9,68.6z"/>
	<path class="st8" d="M132.7,67.7c0.4-1,0.8-1.9,1.1-2.9c1.6,2.3,2.3,15.5,1.4,22c-1,7.4-3.2,14.5-6.9,21
		c-10.6,18.9-26.9,29.2-48.4,31.9c0.3-0.8,0.5-1.4,0.7-2c1.5-0.2,3.1-0.3,4.6-0.6c18.7-3.7,32.7-13.9,41.8-30.7
		c5.7-10.5,7.6-21.8,6.5-33.6C133.4,71,133.3,69.3,132.7,67.7z"/>
	<path class="st8" d="M64.5,136.8c0,0.1,0,0.1,0,0.2c0.2,1.9,0.2,1.9-1.8,1.5c-11.1-2.4-20.8-7.3-29.1-15
		c-10.2-9.5-16.4-21.1-18.7-34.9c-1.3-8.1-1-16.1,0.9-24.1c0-0.1,0.1-0.2,0.2-0.6c0.5,1.2,0.8,2.2,1.2,3.2c-0.1,0-0.2,0-0.2,0.1
		c0,0.3,0,0.5-0.1,0.8c-1.4,7.5-1.6,15.1,0.1,22.5c5.3,23,19.2,38,41.7,45.2C60.7,136.2,62.5,136.8,64.5,136.8z"/>
	<path class="st8" d="M79.6,20.1C79.6,20.1,79.6,20.1,79.6,20.1c-0.2-1.9-0.2-1.9,1.7-1.7c11.8,1.3,22.4,5.7,31.7,13.1
		c7,5.6,12.5,12.5,16.5,20.5c0.9,1.7,1.6,3.5,2.4,5.3c0.1,0.3,0,0.5-0.1,0.7c-0.4,0.5-0.7,0.9-1.1,1.4c-4.1-11.4-11.1-20.8-20.9-28
		C100.8,24.7,90.7,21,79.6,20.1z"/>
	<path class="st8" d="M19.6,58.4C19.6,58.4,19.5,58.4,19.6,58.4c-1-1-1.3-1.9-0.6-3.3c5.6-12.6,14.3-22.4,26.2-29.2
		c7.8-4.4,16.2-6.9,25.2-7.7c0.7-0.1,1.1,0.1,1,0.9c0,0.3,0,0.6,0,0.9c-2.4,0.1-4.7,0.4-7.1,0.8c-17.5,3.5-30.8,12.9-40.1,28
		C22.4,51.9,21,55.2,19.6,58.4z"/>
	<path class="st7" d="M132.7,67.7c0.6,1.6,0.7,3.3,0.9,4.9c1.2,11.8-0.8,23.2-6.5,33.6c-9.1,16.8-23.1,27-41.8,30.7
		c-1.5,0.3-3.1,0.4-4.6,0.6c0-0.4,0-0.7,0.2-1c5.9-0.5,11.6-1.9,16.9-4.4c18.3-8.3,29.7-22.3,34-42c1.5-6.7,1.4-13.4,0.4-20.1
		c0-0.1-0.1-0.2-0.1-0.2C132.1,69,132.6,68.4,132.7,67.7z"/>
	<path class="st7" d="M64.5,136.8c-2-0.1-3.8-0.6-5.6-1.2c-22.4-7.2-36.4-22.2-41.7-45.2C15.5,83,15.6,75.5,17,68
		c0-0.2,0-0.5,0.1-0.8c0.7,0.2,0.6,0.9,0.8,1.4c-2.7,16.4,0.7,31.5,10.6,44.9c8.9,12,20.8,19.3,35.3,22.3c0.2,0,0.3,0,0.5,0
		C64.4,136.2,64.4,136.5,64.5,136.8z"/>
	<path class="st7" d="M19.6,58.4c1.4-3.2,2.7-6.5,4.6-9.5c9.3-15.2,22.7-24.5,40.1-28c2.3-0.5,4.7-0.8,7.1-0.8
		c0,0.3,0.1,0.6,0.1,0.9c-12.1,0.8-23,4.9-32.5,12.4c-8.5,6.7-14.7,15.3-18.5,25.4c-0.1,0.2-0.1,0.4-0.2,0.6
		C20,59.2,19.8,58.8,19.6,58.4z"/>
	<path class="st7" d="M79.6,20.1c11.1,0.9,21.2,4.6,30.1,11.2c9.8,7.2,16.7,16.6,20.9,28c-0.2,0.4-0.4,0.8-0.8,1
		c-1.6-5-4-9.7-7-14.1c-9.2-13.1-21.7-21.3-37.4-24.4c-1.8-0.3-3.5-0.7-5.4-0.6C79.9,20.9,79.8,20.5,79.6,20.1z"/>
	<path class="st7" d="M68.7,145.5c0-2.5,2-4.5,4.5-4.5c2.5,0,4.5,2,4.5,4.5c0,2.5-2,4.5-4.5,4.5C70.7,149.9,68.7,147.9,68.7,145.5z"
		/>
	<path class="st7" d="M136.1,56.7c-0.1,0.1-0.2,0.2-0.2,0.3c-0.1-0.1-0.2-0.1-0.2-0.2c0.1-0.1,0.2-0.2,0.3-0.3
		C136.1,56.6,136.1,56.6,136.1,56.7z"/>
	<path class="st7" d="M13.8,55.2c0-0.1-0.1-0.2-0.1-0.2c0.1-0.1,0.2,0,0.3,0C13.9,55.1,13.9,55.1,13.8,55.2z"/>
	<path class="st7" d="M14,55.4c-0.1-0.1-0.1-0.1-0.2-0.2c0.1,0,0.1-0.1,0.2-0.1c0.1,0,0.1,0.1,0.2,0.1C14.1,55.2,14,55.3,14,55.4z"
		/>
	<path class="st7" d="M136,56.5c0.1,0,0.2-0.1,0.3,0c0,0-0.1,0.1-0.1,0.1C136.1,56.6,136.1,56.6,136,56.5z"/>
	<path class="st7" d="M21.8,74.3c0-0.1-0.1-0.2-0.1-0.2C21.8,74,21.8,74.1,21.8,74.3C21.8,74.2,21.8,74.3,21.8,74.3z"/>
	<path class="st7" d="M86.3,106.5c-0.1,0-0.2,0.1-0.2,0c-0.1-0.1,0-0.1,0.1-0.2C86.2,106.4,86.3,106.4,86.3,106.5z"/>
	<path class="st9" d="M67.4,135.5c-0.6-1.3-0.5-1.9,0.4-2.8C68,133.7,68.8,134.7,67.4,135.5z"/>
</g>
<g class="st0">
	<path class="st10" d="M76.8,150c0.2-2.5-1-4.7-1.7-7c-0.9-2.9-1.9-5.8-3.4-8.5c-0.2-1-0.7-1.9-1.3-2.7c-0.3-0.8-0.7-1.6-1.4-2.2
		c-0.1-0.6-0.5-0.9-0.9-1.2c-4.4-3.6-7.3-8.4-9.9-13.3c-1.7-3.2-3.4-6.5-4.2-10.1c-0.4-1.5-0.7-3.3,1.8-3.5c1.4-0.1,2-1.4,2.7-2.4
		c3.1-5.1,5.2-10.6,6.8-16.3c0.6-2.1-1.6-4.2-0.1-6.4c0-0.1-0.5-0.6-0.8-0.8c-3.1-2.1-6.3-1.8-9,0.7c-0.9,0.8-1.6,1.7-1.9,2.9
		c-0.3,0.9-0.7,1.2-1.7,0.7c-3.1-1.7-6.3-3.3-9.5-5.1c-1.6-0.9-2.1-2.2-1.4-4c0.7-1.6,1.4-3.2,1.6-5c0.1-1,0.9-1.6,1.8-1.9
		c3-0.8,5.6-2.3,8.1-4.2c3.2-2.4,6.1-5.7,11.3-4.1c-1.3-2.5-3.1-3.6-4.3-5.1c-2.6-3.2-3.1-9-0.5-11.9c2.5-2.8,5.6-5,9-7.5
		c-0.3,2.6-0.5,4.8-0.7,6.9c-0.2,1.9,0.8,2.9,2.2,3.8c1.4,0.8,2.5,0.4,3.7-0.4c0.8-0.5,1.4-1.4,2.8-1.5c-0.1,1.3-0.3,2.5-0.3,3.7
		c0,1.5-0.5,3.6,0.9,4c2,0.5,2.1-1.9,2.7-3.2c0.9-2.1,1.4-4.5,3.5-5.5c2.4-1.2,3.6-3.8,6.5-4.5c-3.5-3.2-6.9-5.4-11.1-6.4
		c-5.3-1.3-10.7-2.6-15.6-5c-0.3-0.2-0.7-0.4-1-0.6c-0.6-0.5-1.3-1-1.9-1.5c-0.9-0.8-1.7-1.7-2.6-2.5c-3.9-3.8-4.5-8.8-5.4-14.1
		c2.7,1.8,3.5,5,6,6.7c0.3,0.4,0.8,1.1,1.1,0.7c0.4-0.4-0.3-0.9-0.7-1.3C56.9,7,56.3,3.5,55.8,0c0.2,0,0.3,0,0.5,0
		c4,9.1,17.3,15.9,26,14.6c2.8-0.4,5-1.8,6.8-3.8c0.9-1,1.3-0.9,2,0.2c1,1.4,1.3,3.1,1.6,4.7c0.5,2.3,1.6,4.2,4.4,4.7
		c-0.2-1.6-0.3-3-0.5-4.7c4.4,2.2,6.3,6.4,8.9,10c0.7,1.5,1.4,2.9,2.1,4.4c-0.2,1-0.3,1.9,0.5,2.7c0.2,0.7,0.4,1.4,0.5,2
		c-0.2,2.1-0.1,4.2-0.5,6.2c-0.6,2.8-0.6,6.2-4.7,6.7c-0.7,0.1-0.6,0.9-0.9,1.4c-1.4,2.4-3.4,2.7-5.4,0.8c-1.5-1.4-5.4-1.5-6.7,0.1
		c-1.3,1.5-2.5,3.3-3.7,4.9c0.8,0.7,1.7,0.5,2.5,0.7c2.3,0.4,4.6,0.7,6.8,1.5c1.2,0.4,2.4,1,2.5,2.5c0.1,1.6-1.1,2.3-2.4,2.9
		c-1.1,0.5-2.3,0.9-3.5,1.2C90.7,64,90.1,65.1,90,67c-0.3,8.7,0,17.3,1.7,25.8c0.3,1.7,1,3.4,1.7,4.9c1.8,4,1.9,3.9,5.7,2
		c0.1-0.1,0.3,0,0.5,0.1c-0.4,3.6-0.9,7.2-2,10.8c-2,6.4-5.8,11.7-10.4,16.5c0,0,0,0,0,0c-0.2,0.1-0.4,0.3-0.6,0.4
		c-0.4,0.2-0.9,0.4-1,1l0,0c-0.4,0-0.6,0.2-0.8,0.5c-0.9,0.4-1.5,1.1-1.8,2c-1,1-1.5,2.2-1.9,3.5c-1.8,4-2.6,8.3-3.5,12.6
		c-0.2,1-0.4,2-0.5,2.9C77.1,150,76.9,150,76.8,150z M90.1,12.4c-3.6,3.8-7.6,4.3-11.9,4.1c-5.9-0.3-10.7-3.2-15.6-6.1
		C61.8,10,61.2,9,59.9,9.3c1.1,2.6,3,4.3,4.8,6.1c1.8,1.7,3.9,3,6,4.2c-5.6-1.2-10.3-4.1-15.1-6.8c2.8,5.2,6.8,8.9,12.5,10.6
		c4.1,1.2,8.2,2.3,12.2,3.5c5,1.5,8.7,4.7,12.1,8.5c0.6,0.7,1,1.5,1.1,2.5c0.1,0.9-0.1,1.7-1.3,1.6c-1.8-0.1-3.8,0.2-3.8-2.6
		c-1.6,0.6-2.2,1.9-2.7,3.2c-0.7,1.6-0.7,1.6-2.1,0.8c-0.7-0.4-0.8,0.3-1.1,0.6c-1.2,1.4-1.6,3.3-2.2,5c-0.8,2.2-2,3.8-4.5,3.4
		c-2.4-0.4-2.1-2.6-2.3-4.4c0-0.1,0-0.2,0-0.2c0.1-1-0.1-1.5-1.4-1.1c-2.7,0.8-4.5-0.7-6.4-2.4c-1.5-1.4-0.7-3.3-1.4-5.3
		c-2.4,4.8-1,8.3,2.7,11.6c-2.7,0.2-4.2-1.1-5.6-2.6c-1.4-1.6-0.5-3.7-0.9-5.7c-2.3,3.3-2.2,7.4,0.3,10.1c1.3,1.5,2.9,2.8,4,4.4
		c1.5,2.1,1.2,2.8-1.4,3.1c-1.4,0.2-2.8,0.3-4.2,0.3c-1,0-1.6,0.4-2.4,1.1c-3.1,2.8-6.3,5.6-10.5,6.7c-1.4,0.3-2.4,0.9-2.6,2.6
		c-0.1,1-0.6,2.1-1.1,3c-0.8,1.4-0.3,2.2,0.9,2.8c1.9,1,3.9,1.9,5.8,3c1.5,0.9,2.3,1,3.5-0.7c3.3-4.3,8.1-4.8,12.5-1.8
		c0.7,0.5,1.4,1.1,1.4,2c-0.1,2.8,0.7,5.7-0.2,8.5C65,89.8,63,94.9,60.2,99.7c-0.9,1.6-1.8,3.2-3.8,3.7c-1.1,0.2-0.8,0.9-0.6,1.5
		c2.9,7.5,5.9,14.9,12,20.5c3,2.8,5.5,6,7,9.9c0.8,2.1,1.4,4.3,2.2,7c0.2-1,0.3-1.4,0.4-1.9c0.9-6,3.4-10.8,8.3-14.8
		c6.8-5.7,10.5-13.4,11.7-22.4c-2.3,0.6-3.4-0.6-4.4-2.2c-1.6-2.6-2.7-5.3-3.3-8.3c-1.5-7.8-1.8-15.7-1.6-23.6
		c0.2-5.9,0.4-5.9,5.9-7.8c0.8-0.3,2.1-0.2,2.1-1.4c0-1.2-1.3-1.1-2.1-1.2c-3.6-0.8-7.3-1.4-11.1-2.1c1.9-2.4,3.7-4.6,5.5-7
		c2-2.6,7-3.4,9.7-1.5c2.2,1.6,2.5,1.4,3.3-1.3c0.2-0.8,0.4-1.5,0.7-2.4c2.4,1.9,2.7,1.6,3.8-1.2c1.7-4.7,0.8-9.2-0.6-13.6
		c-1.1-3.2-3.4-6-5.7-9.1c-0.2,1.7-0.8,2.5-2.2,2.2C92.1,21.5,90.8,17.6,90.1,12.4z M59.5,8.9c0.2,0.1,0.4,0.2,0.6,0.3
		c0-0.1,0.2-0.4,0.1-0.4c-0.2-0.1-0.4-0.2-0.6-0.3C59.6,8.5,59.5,8.8,59.5,8.9z M54.9,12.3c0.1,0.1,0.3,0.2,0.4,0.3
		c0.4,0.2,0.4-0.2,0.3-0.4c0-0.1-0.2-0.2-0.4-0.2C55.2,12.1,55,12.2,54.9,12.3z"/>
	<path class="st11" d="M81.3,134.5c0.4-1.3,0.9-2.5,1.9-3.5c0.8,0,1.7,0,2.5-0.1c20.1-4.7,34.3-16.5,41.7-35.7
		c6.2-16.4,4.7-32.5-3.9-47.8c-3.9-6.9-9-12.9-15.8-17.3c-0.7-1.5-1.4-2.9-2.1-4.4c0.9-0.3,1.6,0.3,2.3,0.8
		c9.8,6.6,16.8,15.5,21.5,26.3c3.7,8.6,5.1,17.6,4.4,26.8c-0.9,12.6-5.4,23.9-13.5,33.7C110,125.5,96.9,132.3,81.3,134.5z"/>
	<path class="st11" d="M70.4,131.8c0.6,0.8,1.1,1.7,1.3,2.7c-13.3-0.3-24.9-5.1-35.1-13.5c-11.2-9.3-18.1-21.2-20.5-35.5
		c-3-17.9,1.4-34,13-48c7-8.6,15.9-14.6,26.4-18.1c0.5-0.2,1.1-0.4,1.4-0.9c0.9,0.8,1.7,1.7,2.6,2.5c-0.4,0.2-0.9,0.5-1.3,0.6
		c-9.1,2.7-17.1,7.5-23.7,14.3C23.1,47.6,17.3,61.7,18.2,78.3c1,18.5,9.4,32.9,24.3,43.7C50.8,127.9,60.2,130.9,70.4,131.8z"/>
	<path class="st12" d="M90.1,12.4c0.7,5.1,2.1,9.1,7.2,10.1c1.4,0.3,2.1-0.6,2.2-2.2c2.4,3.1,4.7,5.9,5.7,9.1
		c1.4,4.3,2.3,8.9,0.6,13.6c-1,2.9-1.4,3.1-3.8,1.2c-0.2,0.8-0.5,1.6-0.7,2.4c-0.8,2.8-1.1,2.9-3.3,1.3c-2.7-1.9-7.7-1.1-9.7,1.5
		c-1.8,2.3-3.6,4.6-5.5,7c3.8,0.7,7.4,1.3,11.1,2.1c0.8,0.2,2.1,0.1,2.1,1.2c0,1.2-1.3,1.1-2.1,1.4c-5.6,2-5.8,1.9-5.9,7.8
		c-0.2,7.9,0.1,15.8,1.6,23.6c0.6,3,1.7,5.7,3.3,8.3c1,1.6,2.1,2.8,4.4,2.2c-1.2,9.1-4.9,16.8-11.7,22.4c-4.8,4-7.4,8.8-8.3,14.8
		c-0.1,0.5-0.2,0.9-0.4,1.9c-0.8-2.6-1.4-4.8-2.2-7c-1.5-3.9-3.9-7.1-7-9.9c-6-5.6-9.1-13-12-20.5c-0.2-0.6-0.5-1.3,0.6-1.5
		c2-0.4,2.9-2.1,3.8-3.7c2.7-4.8,4.7-9.9,6.5-15.1c1-2.9,0.1-5.7,0.2-8.5c0-0.9-0.7-1.5-1.4-2c-4.4-3-9.2-2.5-12.5,1.8
		c-1.2,1.6-2,1.6-3.5,0.7c-1.8-1.1-3.8-2-5.8-3c-1.3-0.6-1.7-1.4-0.9-2.8c0.5-0.9,1-2,1.1-3c0.2-1.7,1.2-2.2,2.6-2.6
		c4.3-1.1,7.4-3.9,10.5-6.7c0.7-0.7,1.4-1,2.4-1.1c1.4,0,2.8-0.2,4.2-0.3c2.5-0.3,2.9-1,1.4-3.1c-1.2-1.6-2.7-2.9-4-4.4
		c-2.4-2.7-2.6-6.8-0.3-10.1c0.4,2.1-0.5,4.2,0.9,5.7c1.3,1.5,2.9,2.8,5.6,2.6c-3.7-3.2-5.1-6.7-2.7-11.6c0.7,2-0.2,4,1.4,5.3
		c1.9,1.7,3.7,3.3,6.4,2.4c1.3-0.4,1.5,0.1,1.4,1.1c0,0.1,0,0.2,0,0.2c0.2,1.8-0.1,4,2.3,4.4c2.5,0.4,3.7-1.2,4.5-3.4
		c0.6-1.7,1-3.5,2.2-5c0.3-0.3,0.4-0.9,1.1-0.6c1.4,0.8,1.4,0.8,2.1-0.8c0.6-1.3,1.2-2.6,2.7-3.2c0,2.8,2,2.5,3.8,2.6
		c1.2,0,1.4-0.7,1.3-1.6c-0.1-0.9-0.5-1.8-1.1-2.5c-3.4-3.7-7.1-7-12.1-8.5c-4.1-1.2-8.2-2.3-12.2-3.5c-5.7-1.7-9.8-5.3-12.5-10.6
		c4.8,2.7,9.5,5.6,15.1,6.8c-2.2-1.2-4.3-2.5-6-4.2c-1.8-1.8-3.7-3.5-4.8-6.1c1.3-0.3,1.9,0.7,2.7,1.1c4.9,2.9,9.7,5.9,15.6,6.1
		C82.5,16.8,86.5,16.3,90.1,12.4z M59,64c1.6-0.9,3.2-1.5,4.9-1.8c0.7-0.1,1.3-0.5,1.2-1.3c-0.1-0.8-0.8-0.9-1.5-1
		C61,59.6,59.6,60.8,59,64z"/>
	<path class="st13" d="M62.3,23.1c5,2.4,10.3,3.7,15.6,5c4.2,1,7.6,3.2,11.1,6.4c-2.9,0.6-4.1,3.3-6.5,4.5c-2.2,1-2.7,3.5-3.5,5.5
		c-0.6,1.3-0.7,3.8-2.7,3.2c-1.4-0.4-1-2.6-0.9-4c0-1.2,0.2-2.4,0.3-3.7c-1.3,0.1-2,0.9-2.8,1.5c-1.2,0.8-2.3,1.2-3.7,0.4
		c-1.4-0.9-2.5-2-2.2-3.8c0.3-2.1,0.5-4.3,0.7-6.9c-3.4,2.5-6.5,4.7-9,7.5c-2.6,2.9-2.1,8.7,0.5,11.9c1.2,1.5,3,2.5,4.3,5.1
		c-5.2-1.6-8.1,1.7-11.3,4.1c-2.5,1.9-5.1,3.4-8.1,4.2c-0.9,0.2-1.7,0.9-1.8,1.9c-0.2,1.8-1,3.3-1.6,5c-0.7,1.8-0.2,3.1,1.4,4
		c3.1,1.7,6.3,3.3,9.5,5.1c0.9,0.5,1.4,0.2,1.7-0.7c0.4-1.1,1.1-2.1,1.9-2.9c2.7-2.5,6-2.8,9-0.7c0.3,0.2,0.8,0.8,0.8,0.8
		c-1.5,2.2,0.7,4.3,0.1,6.4c-1.6,5.7-3.7,11.2-6.8,16.3c-0.6,1-1.2,2.3-2.7,2.4c-2.5,0.2-2.1,1.9-1.8,3.5c0.9,3.6,2.5,6.9,4.2,10.1
		c2.6,5,5.5,9.7,9.9,13.3c-11.5-1.2-21.5-5.9-29.8-13.7c-13.5-12.7-19.2-28.5-16.5-46.9c2.7-18.6,13-32,29.7-40.5
		C54.9,25.5,58.8,24.6,62.3,23.1z"/>
	<path class="st13" d="M87.3,127c4.5-4.8,8.4-10.1,10.4-16.5c1.1-3.5,1.6-7.1,2-10.8c-0.2,0-0.4-0.1-0.5-0.1c-3.8,1.9-3.8,2-5.7-2
		c-0.7-1.6-1.4-3.2-1.7-4.9C90,84.3,89.7,75.6,90,67c0.1-1.8,0.7-2.9,2.6-3.3c1.2-0.3,2.4-0.7,3.5-1.2c1.3-0.5,2.4-1.3,2.4-2.9
		c-0.1-1.5-1.3-2-2.5-2.5c-2.2-0.8-4.5-1.1-6.8-1.5c-0.8-0.1-1.7,0-2.5-0.7c1.2-1.7,2.4-3.4,3.7-4.9c1.3-1.5,5.2-1.5,6.7-0.1
		c2,1.9,4,1.6,5.4-0.8c0.3-0.5,0.2-1.3,0.9-1.4c4.1-0.5,4.1-3.8,4.7-6.7c0.4-2,0.4-4.1,0.5-6.2c3.1,1.7,5.3,4.5,7.4,7.2
		c10.3,12.8,13.7,27.5,10.8,43.5c-2.5,14-10,25.2-21.6,33.5C99.9,122.9,94.1,126.1,87.3,127z"/>
	<path class="st13" d="M70.4,131.8c-10.1-0.9-19.6-3.9-27.8-9.9c-14.9-10.7-23.3-25.2-24.3-43.7c-0.9-16.6,4.9-30.7,16.2-42.5
		c6.5-6.8,14.5-11.6,23.7-14.3c0.5-0.1,0.9-0.4,1.3-0.6c0.6,0.5,1.3,1,1.9,1.5c-2.1,0.7-4.3,1.3-6.4,2.1
		c-25.3,9.6-39.7,37-33.7,63.2c5.4,23.2,25.7,40.2,47.7,42C69.6,130.3,70.1,131,70.4,131.8z"/>
	<path class="st13" d="M107.6,30.1c6.8,4.4,11.8,10.4,15.8,17.3c8.6,15.3,10.2,31.4,3.9,47.8c-7.4,19.3-21.6,31.1-41.7,35.7
		c-0.8,0.2-1.7,0.1-2.5,0.1c0.3-0.9,0.9-1.6,1.8-2c0.3-0.2,0.5-0.3,0.8-0.5c0,0,0,0,0,0c1.1,0.2,2.1,0,3.2-0.3c4.5-1.4,9-3,13.1-5.5
		c16.9-10.4,26.1-25.6,27.1-45.4c0.6-12.6-3.2-24.2-10.8-34.3c-2.9-3.9-6.1-7.4-10.2-10.2C107.3,32,107.4,31,107.6,30.1z"/>
	<path class="st12" d="M68.9,129.7c-22-1.7-42.3-18.7-47.7-42c-6.1-26.1,8.4-53.6,33.7-63.2c2.1-0.8,4.3-1.4,6.4-2.1
		c0.3,0.2,0.7,0.4,1,0.6c-3.6,1.6-7.4,2.5-10.9,4.2c-16.7,8.5-27,21.8-29.7,40.5c-2.7,18.4,3,34.2,16.5,46.9
		c8.3,7.8,18.3,12.6,29.8,13.7C68.5,128.7,68.8,129.1,68.9,129.7z"/>
	<path class="st12" d="M108.1,32.8c4,2.7,7.3,6.3,10.2,10.2c7.5,10.2,11.4,21.7,10.8,34.3c-1,19.8-10.2,34.9-27.1,45.4
		c-4.1,2.5-8.5,4.1-13.1,5.5c-1.1,0.3-2.1,0.5-3.2,0.3c0.1-0.6,0.6-0.7,1-1c0.2-0.1,0.4-0.3,0.6-0.4c0,0,0,0,0,0
		c6.8-0.9,12.6-4.1,18.1-8c11.6-8.3,19.1-19.5,21.6-33.5c2.9-16-0.5-30.7-10.8-43.5c-2.2-2.7-4.3-5.5-7.4-7.2
		C108.5,34.1,108.3,33.5,108.1,32.8z"/>
	<path class="st14" d="M57.9,10.3c0.4,0.4,1,0.9,0.7,1.3c-0.4,0.4-0.8-0.3-1.1-0.7C57.6,10.8,57.8,10.5,57.9,10.3z"/>
	<path class="st12" d="M59.5,8.9c0.1-0.2,0.2-0.4,0.2-0.4c0.2,0.1,0.4,0.1,0.6,0.3c0,0-0.1,0.2-0.1,0.4C59.9,9.1,59.7,9,59.5,8.9z"
		/>
	<path class="st12" d="M54.9,12.3c0.1-0.1,0.2-0.3,0.4-0.3c0.1,0,0.3,0.1,0.4,0.2c0,0.2,0.1,0.5-0.3,0.4
		C55.2,12.6,55.1,12.4,54.9,12.3z"/>
	<path class="st13" d="M87.3,127c-0.2,0.1-0.4,0.3-0.6,0.4C86.9,127.3,87.1,127.2,87.3,127z"/>
	<path class="st12" d="M85.8,128.5c-0.3,0.2-0.5,0.3-0.8,0.5C85.1,128.6,85.4,128.4,85.8,128.5z"/>
	<path class="st10" d="M59,64c0.6-3.2,2-4.4,4.6-4.1c0.7,0.1,1.4,0.2,1.5,1c0.1,0.8-0.5,1.2-1.2,1.3C62.2,62.5,60.6,63,59,64z"/>
</g>
<g class="st0">
	<path class="st15" d="M150.6,66.2c0,6.4,0,12.9,0,19.3c-0.6-0.7-0.9,0-1,0.3c-0.3,2.6-1.3,5.1-1.7,7.6c-0.5,3.9-1.9,7.4-3.3,10.8
		c-5.3,12.6-13.3,23.3-24.5,31.4c-10.3,7.5-21.6,12.4-34.3,13.8c-0.8,0.1-1.7-0.2-1.5,1.2c-5.7,0-11.3,0-17,0c0.5-1-0.3-1.1-0.9-1.1
		c-1.1-0.1-2.2,0.1-3.2-0.1c-12.7-2.7-24.5-7.5-34.6-16c-7.7-6.5-14.1-14-18.9-22.9c-4.4-8.4-7.3-17.1-8-26.6c0-0.7,0.1-1.6-1.2-1.2
		c0-4.7,0-9.4,0-14.1C2.2,69,1.7,67.7,1.7,67c0-2.7,0.7-5.3,1.2-7.9c2.6-12.2,8.3-22.9,16.3-32.3c7.7-9,17.2-15.8,28.2-20.3
		C53.2,4.2,59,2.2,65.3,2.3c1.2,0,3,0.3,3.3-1.7c4.7,0,9.4,0,14.1,0c-0.5,0.9,0.2,1,0.8,1.2c2.5,0.9,5.3,0.1,7.7,0.8
		c6.9,2.1,13.9,4.1,20.4,7.8c6.4,3.6,12.3,7.8,17.4,12.9c5.7,5.6,10.1,12.3,13.7,19.4c1.8,3.5,3,7.1,4,10.9c1,3.7,2.6,7.3,2.6,11.3
		C149.1,65.3,149.2,66.9,150.6,66.2z M4.9,82c0.1,0.6,0.3,1.1,0.3,1.7c2.1,17.4,9.7,32.1,22.5,44.1c6.4,5.9,13.7,10.3,21.5,13.8
		c0.5,0.6,1.1,0.7,1.8,0.7c0.2,0,0.3,0,0.5,0.1c0.3,0.1,0.5,0.3,0.8,0.4l0.2,0c0,0,0.2,0.1,0.2,0.1c0.5,0.2,1,0.4,1.4,0.5l0.2,0
		l0.2,0.1c0.5,0.2,1,0.3,1.4,0.5c0.3,0.1,0.6,0.1,0.9,0.2c0.9,1.6,2.4,1,3.7,1l0.2,0l0.2,0.1c0.8,0.7,1.7,0.6,2.6,0.6l0.3,0
		c1,0.8,2.1,0.6,3.2,0.6c0.3,0,0.6,0,0.9,0c4.9,1.2,9.8,1.1,14.7,0.1c1-0.1,2-0.3,3-0.4c0.9,0.5,1.6,0.4,2.4-0.2l0.2,0
		c0.5-0.2,1-0.3,1.4-0.5c0.9-0.2,1.9-0.5,2.8-0.7c27.9-7.8,46.3-25.6,52.5-53.9c6.2-28.1-2.8-52-24.9-70.6
		c-8.7-7.3-18.9-11.6-29.8-14.3c-0.6-0.5-1.3-0.6-2-0.5l-0.2,0c-1.2-0.9-2.5-0.7-3.8-0.6c-0.1,0.1-0.2,0.1-0.3,0
		c-5.1-1.5-10.2-0.9-15.3-0.1c-0.5,0-1,0-1.5,0.1c-1.1-0.1-2.3-0.2-3.3,0.6l-0.3,0c-0.7-0.1-1.4,0-2,0.5c-0.3,0-0.6,0.1-1,0.1
		c-1.3,0.1-2.8-0.6-3.7,1c-0.3,0.1-0.6,0.1-0.9,0.2c-0.5,0.2-1,0.3-1.4,0.5c-0.1,0.1-0.2,0.1-0.3,0.1c-0.5,0.2-1,0.4-1.4,0.5
		c-0.1,0.1-0.2,0.1-0.3,0c-0.3,0.2-0.6,0.3-0.8,0.5c-0.2,0.1-0.3,0.1-0.5,0.1c-0.7,0-1.3,0.1-1.8,0.7c-0.6,0.3-1.2,0.7-1.8,0.9
		c-15.9,7.1-27.8,18.5-35.6,34.1c-3.9,7.9-6.2,16.3-7,25.2C3.7,73.8,3.6,77.9,4.9,82z"/>
	<path class="st14" d="M68.6,0.6c-0.3,2-2.1,1.7-3.3,1.7c-6.3,0-12.1,1.9-17.8,4.2c-11,4.5-20.5,11.3-28.2,20.3
		C11.2,36.2,5.5,46.9,2.9,59.1c-0.6,2.6-1.2,5.2-1.2,7.9c0,0.7,0.5,1.9-1.1,1.5c0-21.9,0-43.9,0-65.8C0.5,1,1,0.5,2.8,0.5
		C24.7,0.6,46.6,0.6,68.6,0.6z"/>
	<path class="st14" d="M0.6,82.6c1.2-0.4,1.1,0.5,1.2,1.2c0.7,9.5,3.6,18.2,8,26.6c4.8,9,11.1,16.4,18.9,22.9
		c10.1,8.5,21.8,13.3,34.6,16c1,0.2,2.1,0,3.2,0.1c0.6,0,1.4,0.1,0.9,1.1c-21.5,0-43.1,0-64.6,0c-1.8,0-2.2-0.4-2.2-2.2
		C0.6,126.5,0.6,104.5,0.6,82.6z"/>
	<path class="st14" d="M150.6,66.2c-1.4,0.7-1.4-1-1.4-1.3c0-4-1.6-7.6-2.6-11.3c-1-3.8-2.2-7.5-4-10.9c-3.6-7.1-8-13.8-13.7-19.4
		c-5.1-5.1-11-9.3-17.4-12.9C105,6.7,98.1,4.7,91.1,2.5c-2.4-0.8-5.2,0.1-7.7-0.8c-0.6-0.2-1.3-0.2-0.8-1.2c22,0,43.9,0,65.9,0
		c1.7,0,2.1,0.4,2.1,2.1C150.6,23.8,150.6,45,150.6,66.2z"/>
	<path class="st14" d="M84.4,150.6c-0.3-1.4,0.7-1.1,1.5-1.2c12.7-1.4,24-6.4,34.3-13.8c11.2-8.1,19.2-18.7,24.5-31.4
		c1.4-3.4,2.8-6.9,3.3-10.8c0.3-2.5,1.3-5,1.7-7.6c0-0.3,0.4-1,1-0.3c0,21,0,42,0,63c0,1.7-0.4,2.1-2.1,2.1
		C127.1,150.6,105.8,150.6,84.4,150.6z"/>
	<path class="st16" d="M51.1,8.8c0.2,0,0.4,0,0.5-0.1c0.3-0.2,0.6-0.3,0.8-0.5c0.1,0,0.2,0,0.3,0c0.5-0.2,1-0.4,1.4-0.5
		c0.1,0,0.2,0,0.3-0.1c0.5-0.2,1-0.3,1.4-0.5C56.2,7.1,56.5,7,56.8,7c1.3-0.1,2.6-0.4,3.7-1c0.3,0,0.6-0.1,1-0.1c0.7,0,1.4,0,2-0.5
		c0,0,0.3,0,0.3,0c1.1-0.1,2.2,0.1,3.3-0.6c0.5,0,1,0,1.5-0.1c5.1,0,10.2,0.1,15.3,0.1c0.1,0,0.2,0,0.3,0c1.2,0.6,2.5,0.6,3.8,0.6
		c0,0,0.2,0,0.2,0c0.6,0.5,1.3,0.5,2,0.5c10.9,2.7,21.2,7,29.8,14.3c22.1,18.6,31.1,42.5,24.9,70.6c-6.2,28.3-24.5,46.1-52.5,53.9
		c-0.9,0.3-1.9,0.5-2.8,0.7c-0.5,0.2-1,0.3-1.4,0.5c0,0-0.2,0-0.2,0c-0.8,0.1-1.6,0.2-2.4,0.2c-1,0.1-2,0.3-3,0.4
		c-4.9,0-9.8-0.1-14.7-0.1c-0.3,0-0.6,0-0.9,0c-1-0.6-2.1-0.6-3.2-0.6c0,0-0.3,0-0.3,0c-0.8-0.6-1.7-0.5-2.6-0.6l-0.2-0.1
		c0,0-0.2,0-0.2,0c-1.2-0.6-2.4-1-3.7-1c-0.3-0.1-0.6-0.1-0.9-0.2c-0.5-0.2-1-0.3-1.4-0.5l-0.2-0.1c0,0-0.2,0-0.2,0
		c-0.5-0.2-1-0.4-1.4-0.5l-0.2-0.1c0,0-0.2,0-0.2,0c-0.3-0.1-0.5-0.3-0.8-0.4c-0.2-0.1-0.3-0.1-0.5-0.1c-0.6-0.2-1.2-0.5-1.8-0.7
		c-7.9-3.6-15.2-7.9-21.5-13.8c-12.8-12-20.4-26.7-22.5-44.1C5.1,83.1,5,82.6,4.9,82c0-4.1,0-8.2,0-12.2c0.8-8.8,3.1-17.2,7-25.2
		c7.7-15.6,19.6-27,35.6-34.1c0.6-0.3,1.2-0.6,1.8-0.9C49.9,9.3,50.5,9,51.1,8.8z M75.9,6.9C37.9,6.9,7.1,37.4,7,75.1
		C7,113.5,37.4,144,75.6,144.3c35.2,0.3,68.7-27.7,68.9-68.5C144.6,35.6,111.7,6.6,75.9,6.9z"/>
	<path class="st17" d="M83.8,4.8c-5.1,0-10.2-0.1-15.3-0.1C73.7,3.9,78.8,3.3,83.8,4.8z"/>
	<path class="st17" d="M67.9,146.4c4.9,0,9.8,0.1,14.7,0.1C77.7,147.4,72.8,147.6,67.9,146.4z"/>
	<path class="st17" d="M4.8,69.7c0,4.1,0,8.2,0,12.2C3.6,77.9,3.7,73.8,4.8,69.7z"/>
	<path class="st17" d="M60.6,6c-1.2,0.6-2.4,1-3.7,1C57.7,5.4,59.2,6,60.6,6z"/>
	<path class="st17" d="M56.8,144.2c1.3,0.1,2.5,0.4,3.7,1C59.2,145.2,57.7,145.8,56.8,144.2z"/>
	<path class="st17" d="M88,5.4c-1.3,0-2.6,0-3.8-0.6C85.5,4.7,86.8,4.5,88,5.4z"/>
	<path class="st17" d="M67.1,4.8c-1,0.6-2.1,0.5-3.3,0.6C64.8,4.6,65.9,4.7,67.1,4.8z"/>
	<path class="st17" d="M63.8,145.8c1.1,0,2.2,0,3.2,0.6C65.9,146.5,64.8,146.6,63.8,145.8z"/>
	<path class="st17" d="M60.9,145.3c0.9,0,1.8,0,2.6,0.6C62.6,145.9,61.7,145.9,60.9,145.3z"/>
	<path class="st17" d="M85.6,146c0.8-0.1,1.6-0.2,2.4-0.2C87.2,146.5,86.4,146.5,85.6,146z"/>
	<path class="st17" d="M51.1,8.8c-0.6,0.2-1.2,0.5-1.8,0.7C49.7,8.9,50.3,8.8,51.1,8.8z"/>
	<path class="st17" d="M90.2,5.9c-0.7,0-1.4,0-2-0.5C88.9,5.3,89.6,5.4,90.2,5.9z"/>
	<path class="st17" d="M63.5,5.4c-0.6,0.4-1.3,0.5-2,0.5C62.1,5.4,62.8,5.3,63.5,5.4z"/>
	<path class="st17" d="M49.3,141.7c0.6,0.2,1.2,0.5,1.8,0.7C50.4,142.4,49.7,142.2,49.3,141.7z"/>
	<path class="st17" d="M54.5,143.5c0.5,0.2,1,0.3,1.4,0.5C55.4,143.9,55,143.7,54.5,143.5z"/>
	<path class="st17" d="M55.9,7.1c-0.5,0.2-1,0.3-1.4,0.5C55,7.5,55.4,7.3,55.9,7.1z"/>
	<path class="st17" d="M88.2,145.8c0.5-0.2,1-0.3,1.4-0.5C89.2,145.5,88.7,145.7,88.2,145.8z"/>
	<path class="st17" d="M54.2,7.7c-0.5,0.2-1,0.4-1.4,0.5C53.2,8,53.7,7.9,54.2,7.7z"/>
	<path class="st17" d="M52.7,142.9c0.5,0.2,1,0.4,1.4,0.5C53.7,143.3,53.2,143.1,52.7,142.9z"/>
	<path class="st17" d="M52.4,8.3c-0.3,0.2-0.6,0.3-0.8,0.5C51.9,8.6,52.1,8.4,52.4,8.3z"/>
	<path class="st17" d="M51.6,142.5c0.3,0.1,0.5,0.3,0.8,0.4C52.1,142.8,51.9,142.6,51.6,142.5z"/>
	<path class="st17" d="M75.9,6.9c35.8-0.3,68.7,28.7,68.6,68.8c-0.2,40.9-33.7,68.8-68.9,68.5C37.4,144,7,113.5,7,75.1
		C7.1,37.4,37.9,6.9,75.9,6.9z M22.2,116c0.2,0.3,0.4,0.5,0.6,0.8c0.2,0.3,0.4,0.7,0.7,1c0.2,0.2,0.3,0.4,0.5,0.6c0,0,0,0,0,0
		c0.2,0.2,0.4,0.4,0.6,0.6l0,0c0.2,0.2,0.4,0.5,0.6,0.7c5.7,6.8,12.6,12.1,20.6,16.1c4.5,2.2,9.1,4.4,14.3,4.9
		c8.3,2.5,16.7,3.1,25.2,1.2c1.2-0.1,2.3,0,3.5-0.2c13.6-2.7,25.2-9,34.9-18.9c7.8-8,13.6-17.2,16.4-28.2c0.5-0.6,0.6-1.3,0.6-2
		l0-0.2c0.9-1.6,1.1-3.2,1.1-5c0-0.3,0-0.6,0-0.9c1.7-7.2,1.7-14.4,0-21.7c-0.1-1,0-2-0.2-2.9c-2.6-12-7.9-22.6-16.2-31.6
		c-8.1-8.7-17.6-15.3-29.2-18.6c-1.3-0.8-2.8-1.1-4.3-1.2l-0.2,0c-1.4-0.8-2.9-1.1-4.4-1.1c-0.4,0-0.7-0.1-1.1-0.1
		c-0.2,0-0.5,0-0.7-0.1l-0.2,0.1c-6.4-1.6-12.9-1.5-19.3,0c-0.3,0-0.5,0-0.8,0c-1.9,0-3.8,0.3-5.5,1.2c-1,0.2-1.9,0.3-2.9,0.6
		C32.9,18.8,17.3,34.7,10.6,59c-3.1,11.2-2.9,22.4,0.3,33.7c2.2,7.8,5.1,15.1,9.9,21.6c0.3,0.4,0.5,0.8,0.8,1.1l0,0
		C21.9,115.6,22.1,115.8,22.2,116C22.3,116.1,22.2,116,22.2,116z"/>
	<path class="st18" d="M141.9,86.4c0,0.3,0,0.6,0,0.9c-1.1,1.5-1.2,3.2-1.1,5c0,0,0,0.2,0,0.2c-0.5,0.6-0.6,1.3-0.6,2
		c-2.8,10.9-8.6,20.2-16.4,28.2c-9.7,9.9-21.4,16.1-34.9,18.9c-1.1,0.2-2.3,0.2-3.5,0.2c-8.4-0.2-16.9,0.4-25.2-1.2
		c-5.2-0.5-9.7-2.7-14.3-4.9c-8-3.9-14.9-9.2-20.6-16.1c-0.2-0.2-0.4-0.5-0.6-0.7c0,0,0,0,0,0c-0.2-0.2-0.4-0.4-0.6-0.6c0,0,0,0,0,0
		c-0.2-0.2-0.3-0.4-0.5-0.6c-0.2-0.3-0.4-0.7-0.7-1c-0.2-0.3-0.4-0.5-0.6-0.8c0,0,0,0,0,0c-0.2-0.2-0.4-0.4-0.6-0.6c0,0,0,0,0,0
		c-0.3-0.4-0.5-0.8-0.8-1.1c-4.8-6.5-7.8-13.8-9.9-21.6C7.7,81.4,7.6,70.1,10.6,59c6.6-24.3,22.2-40.2,46.1-47.9
		c0.9-0.3,1.9-0.4,2.9-0.6c1.9,0.1,3.8,0.1,5.5-1.2c0.3,0,0.5,0,0.8,0c6.4,0,12.9,0,19.3,0c0,0,0.2-0.1,0.2-0.1c0.2,0,0.5,0,0.7,0.1
		c0.4,0,0.7,0.1,1.1,0.1c1.2,1.5,2.9,1,4.4,1.1c0,0,0.2,0,0.2,0c1.2,1.3,2.7,1.3,4.3,1.2c11.6,3.3,21.1,9.9,29.2,18.6
		c8.3,9,13.7,19.6,16.2,31.6c0.2,0.9,0.2,1.9,0.2,2.9C142.5,72,142.3,79.2,141.9,86.4z M43.1,123.7c0.2,0.1,0.4,0.2,0.6,0.3
		c0-0.2,0.1-0.5,0.1-0.7c-0.1-1.3-0.2-2.5-0.3-3.8c-0.5-10.4,0-20.8-0.7-31.3c-0.2-2.4-0.9-2.5-2.8-2.2c-5.1,0.7-6.2,1.4-6.3,5
		c-1.9-2.6-1.9-3.7,0.4-5.6c3.1-2.5,6.3-4.8,10-6.4C61.3,71.6,79,70.6,97,75.4c7.5,2,14.5,5,20.5,10.2c1.5,1.4,2.1,2.8,0.2,5.3
		c0.4-2.4-0.7-3.1-2-3.6c-1.6-0.6-3.2-0.9-4.8-1.2c-2-0.4-2.5,0.2-2.5,2.1c-0.2,9.7-0.6,19.3-0.7,29c0,2.1-0.6,4.3,0.1,7.1
		c1.4-2.6,2.5-4.6,3.5-6.7c1.4-2.9,3-4.9,6.5-6.4c11.2-4.8,19-18.1,12.2-30.6c-2.6-4.8-3.3-9.7-0.7-14.8c0.5-1,0.9-2.1,0.3-3.3
		c-1.8-3.8-3.6-7.6-6.1-11c-1.2-1.7-2.7-3.2-4.9-4c-0.8,3.3-1.3,6.5-2.6,9.4c-0.4,0.9-0.6,2.4-2,2.1c-1.3-0.3-1.6-1.6-1.6-2.8
		c0.1-3.5,0.6-7.1,2.2-10.2c1.1-2.1,0.9-3.5-0.8-5c-1.7-1.6-3.2-3.4-4.9-5c-2.7-2.5-5.5-5-9.2-6.4c-0.6,5.5-1.2,10.9-1.9,16.4
		c-0.2,1.7-0.5,3.3-1.2,4.8c-0.4,0.8-0.9,1.6-1.9,1.6c-1,0-1.6-0.7-2-1.5c-0.3-0.7-0.7-1.4-0.8-2.2c-0.4-6.2,0.4-12.2,2.4-18.1
		c0.6-1.8,3.8-2.6,2.9-4.3c-0.6-1.3-3.5-1.1-5.2-2.1c-4.8-3-9.7-5.9-14.4-9c-1.4-0.9-2.4-1.1-3.9-0.1c-6.4,4.1-12.5,8.9-20.2,11.2
		c1.4,1.9,3.2,3.2,3.8,5.4c1.5,5.2,2,10.5,2.3,15.9c0.1,2-0.5,4.6-2.9,4.7c-2.3,0.1-2.5-2.5-2.8-4.2c-1.1-5.2-1.4-10.4-1.8-15.7
		c-0.2-3.2-0.2-3.2-3-1.5c-4.6,2.7-8.1,6.7-11.8,10.5c-1.4,1.4-1.6,2.5-0.6,4.3c1.8,3.1,2,6.7,2.5,10.1c0.2,1.3-0.2,2.8-1.5,3.2
		c-1.6,0.5-1.8-1.2-2.2-2.2c-0.8-2.3-1.6-4.6-2-7c-0.4-2.9-1.3-2.4-3-0.9c-4.1,3.5-5.9,8.4-8.3,13c-0.7,1.3-0.8,2.5-0.1,3.9
		c2.8,5.1,2,10.2-0.7,15.1c-6.8,12.4,1,25.8,12.1,30.4c3.8,1.6,5.2,3.9,6.7,6.9C41.3,119.8,42.2,121.8,43.1,123.7z"/>
	<path class="st16" d="M60,140.7c8.3,1.6,16.8,1,25.2,1.2C76.7,143.8,68.4,143.2,60,140.7z"/>
	<path class="st16" d="M85.3,9.3c-6.4,0-12.9,0-19.3,0C72.4,7.8,78.8,7.7,85.3,9.3z"/>
	<path class="st16" d="M141.9,86.4c0.4-7.2,0.6-14.4,0-21.7C143.6,72,143.6,79.2,141.9,86.4z"/>
	<path class="st16" d="M65.1,9.3c-1.6,1.3-3.5,1.3-5.5,1.2C61.3,9.6,63.2,9.3,65.1,9.3z"/>
	<path class="st16" d="M91.7,10.5c-1.5-0.1-3.2,0.5-4.4-1.1C88.8,9.4,90.3,9.7,91.7,10.5z"/>
	<path class="st16" d="M140.7,92.3c-0.1-1.8,0-3.5,1.1-5C141.8,89,141.5,90.7,140.7,92.3z"/>
	<path class="st16" d="M96.2,11.7c-1.6,0.1-3.1,0.1-4.3-1.2C93.4,10.5,94.9,10.9,96.2,11.7z"/>
	<path class="st16" d="M140.1,94.5c0-0.7,0.1-1.4,0.6-2C140.7,93.2,140.6,94,140.1,94.5z"/>
	<path class="st16" d="M20.9,114.3c0.3,0.4,0.5,0.8,0.8,1.1C21.4,115,21.2,114.7,20.9,114.3z"/>
	<path class="st16" d="M23.5,117.8c0.2,0.2,0.3,0.4,0.5,0.6C23.8,118.2,23.7,118,23.5,117.8z"/>
	<path class="st16" d="M24,118.4c0.2,0.2,0.4,0.4,0.6,0.6C24.4,118.8,24.2,118.6,24,118.4z"/>
	<path class="st16" d="M86.2,9.3c-0.2,0-0.5,0-0.7-0.1C85.7,9.3,85.9,9.3,86.2,9.3z"/>
	<path class="st16" d="M21.7,115.4c0.2,0.2,0.4,0.4,0.6,0.6C22.1,115.8,21.9,115.6,21.7,115.4z"/>
	<path class="st16" d="M22.2,116c0.2,0.3,0.4,0.5,0.6,0.8C22.6,116.5,22.4,116.3,22.2,116z"/>
	<path class="st16" d="M24.6,119c0.2,0.2,0.4,0.5,0.6,0.7C25,119.4,24.8,119.2,24.6,119z"/>
	<path class="st19" d="M43.1,123.7c-0.9-1.9-1.8-3.9-2.8-5.8c-1.6-2.9-2.9-5.3-6.7-6.9c-11-4.6-18.9-17.9-12.1-30.4
		c2.7-4.9,3.5-9.9,0.7-15.1c-0.7-1.3-0.6-2.6,0.1-3.9c2.4-4.5,4.2-9.5,8.3-13c1.7-1.4,2.6-1.9,3,0.9c0.3,2.4,1.2,4.7,2,7
		c0.3,1,0.6,2.7,2.2,2.2c1.3-0.4,1.7-1.9,1.5-3.2c-0.5-3.5-0.7-7-2.5-10.1c-1-1.8-0.8-2.9,0.6-4.3c3.7-3.8,7.1-7.8,11.8-10.5
		c2.9-1.7,2.8-1.7,3,1.5c0.4,5.2,0.8,10.5,1.8,15.7c0.3,1.7,0.5,4.3,2.8,4.2c2.4-0.1,3-2.7,2.9-4.7c-0.2-5.3-0.8-10.7-2.3-15.9
		c-0.6-2.1-2.4-3.4-3.8-5.4c7.7-2.3,13.8-7.1,20.2-11.2c1.5-1,2.4-0.8,3.9,0.1c4.7,3.1,9.6,6,14.4,9c1.7,1.1,4.6,0.8,5.2,2.1
		c0.9,1.7-2.3,2.5-2.9,4.3c-2,5.9-2.8,11.9-2.4,18.1c0,0.7,0.4,1.5,0.8,2.2c0.4,0.8,1,1.5,2,1.5c1,0,1.5-0.8,1.9-1.6
		c0.7-1.5,1.1-3.1,1.2-4.8c0.6-5.4,1.2-10.8,1.9-16.4c3.7,1.4,6.5,3.8,9.2,6.4c1.7,1.6,3.2,3.4,4.9,5c1.7,1.5,1.9,2.9,0.8,5
		c-1.6,3.1-2.1,6.7-2.2,10.2c0,1.2,0.3,2.6,1.6,2.8c1.4,0.3,1.6-1.2,2-2.1c1.3-3,1.8-6.2,2.6-9.4c2.1,0.8,3.6,2.3,4.9,4
		c2.5,3.4,4.3,7.2,6.1,11c0.6,1.3,0.2,2.3-0.3,3.3c-2.6,5.1-1.9,10,0.7,14.8c6.8,12.5-0.9,25.8-12.2,30.6c-3.5,1.5-5.1,3.5-6.5,6.4
		c-1,2.1-2.2,4.1-3.5,6.7c-0.7-2.8-0.1-5-0.1-7.1c0.2-9.7,0.6-19.3,0.7-29c0-2,0.5-2.6,2.5-2.1c1.6,0.3,3.2,0.7,4.8,1.2
		c1.3,0.5,2.4,1.2,2,3.6c1.9-2.5,1.3-3.9-0.2-5.3c-5.9-5.2-12.9-8.2-20.5-10.2c-18-4.7-35.7-3.8-52.9,3.7c-3.7,1.6-6.9,3.9-10,6.4
		c-2.3,1.9-2.3,3-0.4,5.6c0.1-3.6,1.2-4.3,6.3-5c2-0.3,2.6-0.2,2.8,2.2c0.7,10.4,0.2,20.9,0.7,31.3c0.1,1.3,0.2,2.5,0.3,3.8
		C43.6,123.5,43.4,123.6,43.1,123.7z M120.5,52c-1,2.7-1.7,4.9-2.7,7c-0.7,1.6-1.9,2.7-3.8,2.6c-2.1-0.1-3.1-1.3-3.8-3.1
		c-0.6-1.5-0.8-3-0.4-4.6c0.7-2.9,0.9-6,2.2-8.8c0.4-0.8,0.6-1.6-0.1-2.4c-2.6-2.8-5.2-5.5-8.2-7.9c-1.1-0.9-1.8-0.6-1.9,0.8
		c-0.1,1.4-0.2,2.7-0.4,4.1c-0.5,4.2-0.6,8.4-2.4,12.3c-1.7,3.8-5.7,4.1-8.1,0.7c-1.2-1.7-1.7-3.8-1.6-5.8c0.2-6,0.7-11.9,2.9-17.5
		c0.6-1.6,0.3-2.2-1.1-2.9c-4.7-2.4-9.1-5.3-13.5-8.3c-1-0.7-1.8-1.2-3.1-0.3c-4.7,3.1-9.4,6.3-14.5,8.9c-0.9,0.5-1.3,1-0.8,2.1
		c2.6,5.5,2.5,11.6,3.3,17.5c0.3,2.3-0.3,4.5-1.6,6.4c-2.4,3.4-6.3,3.2-8.2-0.6c-0.9-1.8-1.4-3.9-1.6-5.9c-0.4-3.4-0.9-6.8-1.1-10.2
		c-0.2-2-0.9-2.2-2.2-1c-2.2,2-4.2,4.1-6.4,6c-1.9,1.6-2.1,3.2-1.3,5.6c1.2,3.4,2.1,6.9,1.7,10.6c-0.3,2.2-1.3,4-3.7,4.4
		c-2.5,0.4-3.8-1.1-4.6-3.2c-0.5-1.4-1-2.7-1.5-4.1c-0.6-1.7-1.3-1.8-2.3-0.4c-1.9,2.7-3.3,5.8-4.7,8.7c-0.4,0.9-0.3,1.7,0.1,2.5
		c2.9,5.8,1.8,11.4-1.1,16.8c-3.6,6.7-2.6,13.2,1.6,19c3,4.1,6.5,8.1,12.4,8.3c1.1,0,1.5,1,2.1,1.9c0.5,0.8,0.3,2,1.5,2.3
		c0.1-0.3,0.2-0.6,0.2-0.9c-0.3-7.5-0.7-15-1.1-22.5c0-0.6,0.1-1.6-0.9-1.4c-1.1,0.2-2.5,0.3-2.7,1.8c-0.1,1,0,2-0.2,2.9
		c-0.3,1.5-1.2,2.2-2.8,1.7c-3.2-1.1-5.1-8.1-2.7-10.5c2.7-2.8,6-5,9.5-6.8c14.7-7.4,30.2-9.4,46.4-7.2c11.2,1.5,21.7,4.9,30.8,11.8
		c4,3.1,4.3,5,2.3,9.9c-0.7,1.7-1.9,3.3-3.9,2.9c-2-0.4-1.8-2.4-1.7-3.8c0.1-1.8-0.9-2.2-2.2-2.4c-1.9-0.2-1.6,1.3-1.6,2.4
		c-0.3,6.6-0.6,13.3-0.9,19.9c0,0.6-0.3,1.4,0.7,2.1c0.7-3.2,3.2-3.5,5.8-4.4c8.3-3.2,15.1-12.7,13-22.1c-0.5-2.3-1.6-4.4-2.6-6.5
		c-2.2-4.8-2.8-9.5-0.5-14.4c0.4-0.9,0.9-1.8,0.5-2.8C125.1,59.4,123.4,55.7,120.5,52z"/>
	<path class="st17" d="M43.1,123.7c0.2-0.1,0.5-0.2,0.7-0.4c0,0.2-0.1,0.5-0.1,0.7C43.5,123.9,43.3,123.8,43.1,123.7z"/>
</g>
<g class="st0">
	<circle class="st20" cx="75" cy="75" r="62.5"/>
	<circle class="st21" cx="75" cy="75" r="57"/>
</g>
<g class="st0">
	<path class="st22" d="M74.8,143.1c-0.3,0-1.1-0.1-1.3-1.2l-0.9-2.9c-1-3.2-1.9-6.3-2.9-9.5c-0.9-3-1.8-6.3-2.5-9.6
		c0-0.2-0.1-0.4-0.1-0.6c0-0.2-0.1-0.4-0.1-0.6c-0.2-0.9,0-1.7,0.5-2.6c0.5-0.8,0.6-1.9,0.6-2.9c0-2.4,0-4.9-0.1-7.3
		c0-1.5-0.1-3-0.1-4.5c0-3.9-0.1-7.7-0.1-11.6l0-4.7l0-0.4c0-0.3,0-0.7,0-1c0,0,0-0.1,0-0.1c0,0-0.1,0-0.1,0
		c-0.6-0.2-1.1-0.4-1.7-0.6c-0.1,0-0.3-0.1-0.4-0.1c0,0.3-0.1,0.6-0.3,0.8c-0.3,0.3-0.6,0.4-1.1,0.4c-0.2,0-0.4,0-0.7-0.1
		c-0.8-0.1-1.6-0.2-2.4-0.2c-1,0-2.2,0.1-3.4,0.2c-0.2,0-0.3,0-0.5,0c-1,0-1.6-0.5-1.8-1.4c-3.5,0.4-6.6,1.3-9.4,2.6
		c-0.5,0.3-0.9,0.4-1.3,0.4c-1,0-1.3-0.8-1.6-1.5c-1.3-3.2-3.8-5.6-7.7-7.7c-1.3-0.7-2.7-1.3-4.1-1.8c-1-0.2-1.2-0.9-1.2-1.2
		c0-0.3,0.1-1.1,1.2-1.4c6.4-2.5,11.1-6.9,14.3-13c0.2-0.5,0.6-1.2,1.5-1.2c0.6,0,1,0.4,1.4,0.7c1.4,1.4,3.3,2.3,5.8,2.9
		c0.1-0.3,0.2-0.6,0.4-0.8c0.5-0.5,1.2-0.5,1.5-0.5l0.4,0c0.6,0,1.2,0,1.8,0c0.6,0,1.2,0,1.8,0c1.3,0,2.2-0.1,3.1-0.2
		c0.1,0,0.2,0,0.3,0c0.5,0,0.8,0.2,1.1,0.5c0.6-0.3,3.4-1.7,3.4-1.7c0-0.1,0-0.1,0-0.3l0-8.1c0-2.8,0-5.7-0.1-8.5
		c-0.1-1.6-0.7-2.8-2-3.7c-0.3-0.2-0.7-0.4-1-1l-0.4-0.8L65,36c0.5-0.3,0.9-0.4,1.3-0.4c0.1,0,0.2,0,0.3-0.1l0.4-0.1
		c0.5-0.1,1-0.2,1.5-0.5c0.1,0,0.1-0.1,0.2-0.1c0,0,0,0-0.1,0c0,0-0.1,0-0.1,0c-0.4,0.1-0.7,0.2-1,0.3c-0.3,0.1-0.6,0.2-1,0.2
		c-1.6,0.3-3.1,0.4-4.6,0.5l-0.8,0C60,36,58.9,36,57.8,36c-0.7,0-1.4,0-2.1,0.1l-0.1,0c-0.9,0-1.6-0.5-2-1.4
		c-0.2-0.5-0.4-0.9-0.7-1.4c-0.2-0.4-0.4-0.8-0.6-1.2L52.2,32c-0.2-0.4-0.7-1.4,0.1-2.2c0.3-0.3,0.7-0.5,1.1-0.5
		c0.4,0,0.6,0.1,0.9,0.2c0.1,0,0.1,0,0.2,0.1c1.9,0.5,3.7,0.7,5.4,0.7c1.6,0,3.2-0.2,4.6-0.6c1-0.3,1.8-0.7,2.5-1.3
		c0.4-0.4,0.9-0.6,1.3-0.6c0.4,0,0.8,0.1,1.1,0.4c0,0,0.1,0,0.1,0.1c0.1,0,0.2,0.1,0.2,0.1c0,0,0-0.1,0-0.2c0.1-1,0.1-1.8-0.1-2.5
		c-0.9-4.4-0.5-8.8,1.6-14.1c0.1-0.1,0.1-0.3,0.2-0.4c0,0,0-0.1,0.1-0.1c-1.5-0.9-1.7-1.7-0.9-3.3c0.7-1.4,1.4-2.7,2.1-4
		c0.4-0.7,0.8-1.4,1.2-2.2l0.3-0.6h1.4l3.7,6.8c0.2,0.3,0.4,0.8,0.5,1.4c0.2,1.4-0.8,2-1.3,2.2c1.3,3,2,6.3,2.1,10.2
		c0,1.3-0.1,2.6-0.4,4c-0.2,0.8-0.3,1.6-0.2,2.5c0,0.2,0.1,0.3,0.1,0.3c0.1,0,0.1,0,0.2-0.1c0.4-0.2,0.8-0.3,1.2-0.3
		c0.7,0,1.2,0.4,1.6,0.7c1.6,1.2,3.5,1.5,5.4,1.6c0.5,0,1.1,0,1.6,0c2.1,0,3.9-0.2,5.6-0.7c0.3-0.1,0.5-0.1,0.7-0.1
		c0.6,0,1,0.3,1.1,0.5c0.4,0.6,0.2,1.3,0.2,1.6c-0.1,0.3-0.2,0.7-0.4,1.1c-0.1,0.2-0.3,0.4-0.4,0.7c-0.2,0.3-0.4,0.6-0.4,0.9
		c-0.4,1.4-1.3,2.1-2.7,2.1c-0.2,0-0.3,0-0.5,0C92.2,36,91.1,36,90,35.9c-1.7-0.1-3.4-0.1-5.1-0.3c-1.2-0.1-2.2-0.3-3.1-0.6
		c-0.2-0.1-0.5-0.2-0.7-0.2c0,0-0.1,0-0.1,0c0.1,0.1,0.3,0.2,0.6,0.3c0.5,0.2,1,0.3,1.6,0.4l0.5,0.1c0.8,0.2,1.1,0.7,1.2,1
		c0.1,0.3,0.1,1-0.7,1.5c-1.6,1-2.3,2.5-2.3,4.7c0,3.2,0,6.3,0,9.5c0,0,0,4.4,0,4.5c0.1,0,0.6,0.1,0.6,0.1c0.4,0,0.8,0.1,1.2,0.2
		c1.9,0.5,3,2.1,2.8,4.1c1.4,0.3,2.8,0.6,4.1,0.8c2.4,0.4,3.8,2,4.1,4.5c0.1,0.9,0,1.7-0.4,2.4c0.5,0.3,1.1,0.8,1.3,1.7
		c0.4,1.3,0.4,2.6,0,3.8c-0.2,0.8-0.9,1.4-1.9,1.8c-0.2,0.1-0.4,0.2-0.7,0.2c0.8,1.7,0.4,3.4-1.2,4.8c-1.1,1-2.2,1.5-3.4,1.5
		c-0.3,0-0.6,0-0.9-0.1c0,0-0.5,0-0.5,0c0,0.1,0,0.2,0,0.3c0.2,1.7-0.7,2.9-2.4,3.3c-0.9,0.2-1.9,0.4-2.9,0.4c0,0,0,0,0,0
		c0,0,0,3.9,0,3.9c0,3.8-0.1,7.7-0.1,11.5l0,0.6c0,2.8,0,5.8-0.3,8.7c-0.1,1,0,2,0.1,3.2l0,0.3c0.1,0.4,0.1,0.8,0.2,1
		c1.1,1.5,0.8,3.1,0.5,4.4c-0.8,4-2,8-3,11.4c-0.7,2.3-1.4,4.6-2.1,6.9l-0.9,3.1c-0.1,0.2-0.1,0.4-0.2,0.5
		C75.9,142.9,75.3,143,74.8,143.1L74.8,143.1z"/>
	<path class="st23" d="M74.9,2c1.1,2.1,2.3,4.2,3.4,6.2c0.2,0.3,0.3,0.6,0.4,1c0.1,0.5-0.1,0.9-0.6,1.1c-0.8,0.3-0.9,0.5-0.6,1.3
		c1.4,3.2,1.9,6.5,2.1,9.9c0,1.3-0.1,2.5-0.4,3.8c-0.2,1-0.4,1.9-0.2,2.9c0.2,0.8,0.5,1.2,1,1.2c0.2,0,0.5-0.1,0.8-0.3
		c0.3-0.1,0.5-0.2,0.7-0.2c0.3,0,0.6,0.2,1,0.4c1.7,1.4,3.9,1.7,6,1.8c0.6,0,1.1,0,1.7,0c2,0,4-0.2,5.9-0.8c0.2,0,0.3-0.1,0.4-0.1
		c0.3,0,0.4,0.2,0.2,0.7c-0.1,0.3-0.2,0.6-0.4,0.9c-0.3,0.6-0.7,1.1-0.9,1.7c-0.3,1-0.9,1.3-1.7,1.3c-0.1,0-0.3,0-0.4,0
		c-2.7-0.2-5.5-0.2-8.2-0.5c-1-0.1-1.9-0.3-2.9-0.6c-0.4-0.1-0.7-0.2-1.1-0.2c-0.2,0-0.3,0-0.5,0.1c-0.8,0.2-1,0.9-0.5,1.6
		c0.3,0.4,0.7,0.6,1.2,0.7c0.7,0.3,1.5,0.4,2.3,0.5c0.2,0,0.3,0.1,0.4,0.2c0,0.2-0.1,0.3-0.3,0.4c-2,1.3-2.8,3.2-2.8,5.6
		c0,4.6,0,9.2,0,13.8c0,1.1,0,1.1,1.1,1.3c0.5,0.1,1,0.1,1.5,0.2c1.4,0.4,2.2,1.6,2,3c-0.1,0.9-0.1,0.9,0.8,1.1
		c1.4,0.3,2.8,0.6,4.2,0.8c2,0.4,3,1.6,3.3,3.5c0.1,0.9,0,1.7-0.8,2.2c-0.4,0.3-0.3,0.4,0.1,0.6c0.7,0.3,1.4,0.6,1.7,1.4
		c0.3,1.1,0.3,2.2,0,3.3c-0.2,0.6-0.7,0.9-1.2,1.1c-0.5,0.2-0.9,0.3-1.4,0.4c-0.3,0.1-0.5,0.2-0.2,0.5c1.1,1.5,0.9,3-0.5,4.3
		c-0.8,0.7-1.7,1.2-2.7,1.2c-0.2,0-0.5,0-0.7-0.1c-0.1,0-0.1,0-0.2,0c-0.3,0-0.5,0-0.8,0c-0.6,0-0.9,0.2-0.8,1.4
		c0.1,1.2-0.5,1.9-1.6,2.2c-0.9,0.2-1.8,0.3-2.7,0.3c0,0,0,0,0,0c0,0,0,0,0,0c-0.9,0-1,0.1-1,1.1c0,5.1-0.1,10.3-0.1,15.4
		c0,3.1,0,6.1-0.3,9.2c-0.1,1.1,0,2.3,0.2,3.4c0.1,0.6,0.1,1.2,0.5,1.7c0.8,1.1,0.6,2.4,0.3,3.6c-0.8,3.8-1.9,7.5-3,11.3
		c-1,3.3-2,6.7-3.1,10c0,0.1-0.1,0.3-0.1,0.4c-0.1,0.2-0.1,0.5-0.3,0.5c0,0,0,0,0,0c-0.3,0-0.3-0.3-0.3-0.5
		c-1.3-4.1-2.5-8.2-3.7-12.3c-0.9-3.1-1.8-6.3-2.4-9.5c-0.1-0.4-0.1-0.8-0.2-1.2c-0.1-0.6,0-1.2,0.3-1.8c0.7-1,0.8-2.3,0.8-3.5
		c0-4-0.1-7.9-0.2-11.9C69,95.9,69,90.5,69,85.1c0-0.4,0-0.9,0-1.3c0-0.7-0.2-1-0.9-1.2c-1-0.3-1.9-0.7-2.9-1
		c-0.2-0.1-0.4-0.1-0.5-0.1c-0.2,0-0.3,0.2-0.2,0.7c0.1,0.7,0.1,0.9-0.3,0.9c-0.1,0-0.3,0-0.6-0.1c-0.9-0.1-1.7-0.2-2.5-0.2
		c-1.2,0-2.4,0.1-3.5,0.2c-0.1,0-0.3,0-0.4,0c-0.5,0-0.8-0.2-0.8-0.9c0-0.5-0.3-0.6-0.7-0.6c-0.1,0-0.1,0-0.2,0
		c-3.5,0.4-6.8,1.2-10,2.7c-0.4,0.2-0.7,0.3-0.9,0.3c-0.3,0-0.4-0.2-0.6-0.9c-1.6-3.9-4.6-6.3-8.2-8.2c-1.4-0.7-2.8-1.3-4.3-1.8
		c-0.2-0.1-0.5-0.1-0.5-0.3c0-0.3,0.3-0.3,0.5-0.4c6.6-2.6,11.5-7.1,14.8-13.4c0.2-0.4,0.4-0.6,0.5-0.6c0.2,0,0.3,0.1,0.6,0.4
		c1.9,1.8,4.3,2.8,6.8,3.3c0.1,0,0.2,0,0.2,0c0.4,0,0.5-0.2,0.5-0.6c0-0.6,0.3-0.9,0.9-0.9c0.1,0,0.2,0,0.3,0c1.2,0,2.4,0,3.6,0
		c1.1,0,2.2,0,3.3-0.2c0,0,0.1,0,0.1,0c0.2,0,0.3,0.1,0.4,0.4c0,0.3,0.1,0.4,0.3,0.4c0.1,0,0.2,0,0.4-0.1c1.3-0.7,2.6-1.3,4-2
		c0.5-0.3,0.5-0.7,0.5-1.2c0-2.2,0-4.5,0-6.7c0-3.3,0-6.6-0.1-9.9c-0.1-1.9-0.9-3.5-2.5-4.5c-0.2-0.1-0.5-0.2-0.6-0.5
		c0.4-0.2,0.8-0.2,1.3-0.3c0.7-0.2,1.5-0.3,2.1-0.7c0.6-0.3,0.9-0.9,0.7-1.4c-0.2-0.5-0.6-0.7-1.1-0.7c-0.1,0-0.2,0-0.3,0
		c-0.7,0.1-1.4,0.4-2,0.5c-1.7,0.4-3.5,0.4-5.3,0.5c-1.8,0.1-3.6,0.1-5.4,0.2c0,0-0.1,0-0.1,0c-0.5,0-0.8-0.2-1-0.7
		c-0.4-0.9-0.9-1.7-1.3-2.6c-0.2-0.4-0.5-0.8-0.2-1.2c0.1-0.1,0.2-0.1,0.3-0.1c0.2,0,0.5,0.2,0.8,0.2c1.9,0.4,3.8,0.7,5.6,0.7
		c1.6,0,3.3-0.2,4.9-0.6c1.1-0.3,2.1-0.8,2.9-1.5c0.2-0.2,0.4-0.3,0.6-0.3c0.2,0,0.3,0.1,0.5,0.2c0.1,0.1,0.2,0.1,0.4,0.2
		c0.3,0.1,0.5,0.2,0.7,0.2c0.6,0,0.9-0.4,1-1.1c0.1-1,0.1-1.9-0.1-2.9c-1-4.7-0.2-9.1,1.5-13.5c0.1-0.2,0.2-0.5,0.3-0.7
		c0.2-0.5,0.1-0.8-0.4-1.1c-1.1-0.6-1.2-0.9-0.6-2c1-2.1,2.2-4,3.2-6.1C74.8,2,74.8,2,74.9,2 M76.1-0.1h-1.3h-0.1h-1.3L72.8,1
		c-0.4,0.7-0.8,1.4-1.2,2.1c-0.7,1.3-1.5,2.6-2.1,4c-0.9,1.8-0.7,3.1,0.6,4.2c-2,5.4-2.5,10-1.5,14.5c0.1,0.3,0.1,0.6,0.1,1
		c-0.2,0-0.4,0-0.5,0c-0.7,0-1.4,0.3-2,0.8c-0.5,0.5-1.2,0.8-2,1c-1.4,0.4-2.9,0.6-4.4,0.6c-1.6,0-3.3-0.2-5.1-0.6l-0.1,0
		c-0.3-0.1-0.7-0.3-1.3-0.3c-0.7,0-1.4,0.3-1.9,0.8c-0.6,0.6-1.1,1.7-0.2,3.4l0.1,0.1c0.2,0.4,0.4,0.8,0.6,1.2
		c0.3,0.5,0.5,0.9,0.7,1.4c0.7,1.8,2.2,2.1,3,2.1c0.1,0,0.1,0,0.2,0c0.7,0,1.4,0,2.1-0.1c1.1,0,2.2-0.1,3.3-0.1l0.8,0
		c0.4,0,0.9,0,1.3-0.1l0.4,0.9c0.4,0.9,1.1,1.3,1.4,1.4l0,0c1,0.7,1.5,1.6,1.6,2.9c0.1,2.8,0.1,5.7,0.1,8.4l0,1.4l0,2.6
		c0,1.2,0,2.5,0,3.7c-0.3,0.2-0.7,0.3-1,0.5c-0.4,0.2-0.8,0.4-1.2,0.6c-0.4-0.2-0.8-0.3-1.2-0.3c-0.1,0-0.2,0-0.4,0
		c-0.9,0.1-1.8,0.2-3,0.2c-0.6,0-1.2,0-1.8,0c-0.6,0-1.2,0-1.8,0l-0.4,0c-0.9,0-1.7,0.3-2.2,0.9c-0.1,0.1-0.2,0.2-0.3,0.3
		c-1.9-0.6-3.3-1.3-4.5-2.4c-0.4-0.4-1.1-1-2.1-1c-1.5,0-2.2,1.3-2.4,1.8c-3,5.9-7.5,9.9-13.6,12.4c-1.5,0.4-2,1.6-1.9,2.5
		c0,0.4,0.2,1.8,2,2.2c1.3,0.5,2.7,1,3.9,1.7c3.7,1.9,6,4.2,7.2,7.1c0.3,0.8,0.9,2.2,2.6,2.2c0.7,0,1.2-0.2,1.8-0.5
		c2.5-1.2,5.2-2,8.3-2.4c0.5,0.8,1.4,1.3,2.5,1.3c0.2,0,0.4,0,0.6,0c1.2-0.2,2.3-0.2,3.3-0.2c0.8,0,1.6,0,2.3,0.1
		c0.3,0,0.6,0.1,0.9,0.1c0.9,0,1.5-0.4,1.9-0.8c0.1-0.1,0.1-0.1,0.2-0.2c0.2,0.1,0.4,0.1,0.5,0.2c0,0.1,0,0.3,0,0.4
		c0,0.1,0,0.2,0,0.4c0,1.6,0,3.1,0,4.7c0,3.8,0,7.7,0.1,11.6c0,1.5,0.1,3,0.1,4.5c0.1,2.4,0.1,4.9,0.1,7.3c0,1.2-0.1,1.8-0.4,2.3
		c-0.7,1.1-0.9,2.2-0.6,3.4c0,0.2,0.1,0.4,0.1,0.5c0,0.2,0.1,0.4,0.1,0.6c0.7,3.4,1.6,6.7,2.5,9.7c0.9,3.2,1.9,6.4,2.9,9.5l0.8,2.8
		c0.4,2,2.1,2.1,2.4,2.1h0.1l0.1,0c0.4,0,1.7-0.2,2.2-1.9c0.1-0.1,0.1-0.3,0.1-0.4l0-0.1c0.3-1,0.6-2,0.9-3c0.7-2.3,1.4-4.7,2.1-7
		c1-3.4,2.2-7.4,3-11.4c0.3-1.3,0.7-3.3-0.7-5.2c0-0.1-0.1-0.4-0.1-0.5l0-0.3c-0.2-1.1-0.2-2-0.1-2.9c0.2-2.9,0.2-5.9,0.3-8.8l0-0.6
		c0-3.8,0.1-7.6,0.1-11.4l0-2.9c0.7-0.1,1.5-0.2,2.2-0.4c1.9-0.5,3-1.7,3.2-3.4c0.1,0,0.2,0,0.3,0c1.5,0,2.8-0.6,4.1-1.7
		c1.6-1.4,2.2-3.2,1.8-4.9c1.4-0.6,2-1.6,2.2-2.4c0.4-1.4,0.4-2.9,0-4.4c-0.2-0.7-0.6-1.3-1-1.7c0.2-0.6,0.3-1.3,0.2-2.2
		c-0.4-2.9-2.1-4.8-5-5.4c-1.3-0.2-2.3-0.4-3.2-0.6c-0.1-2.1-1.5-3.7-3.6-4.3c-0.3-0.1-0.7-0.1-1-0.2c0-1.2,0-2.4,0-3.6
		c0-3.1,0-6.3,0-9.5c0-1.8,0.5-3,1.8-3.8c1-0.6,1.3-1.5,1.2-2.3c1.3,0.1,2.7,0.2,4,0.2c1,0,2.1,0.1,3.2,0.2c0.2,0,0.4,0,0.5,0
		c2.6,0,3.5-1.8,3.8-2.9c0-0.1,0.2-0.4,0.3-0.6c0.1-0.2,0.3-0.5,0.4-0.7c0.2-0.5,0.4-0.9,0.5-1.3c0.3-1,0.2-1.8-0.3-2.5
		c-0.5-0.6-1.2-0.9-2-0.9c-0.3,0-0.6,0.1-1,0.2c-1.6,0.5-3.3,0.7-5.3,0.7c-0.5,0-1,0-1.6,0c-1.7-0.1-3.5-0.3-4.8-1.4
		c-0.5-0.4-1.2-0.9-2.3-0.9c-0.2,0-0.4,0-0.5,0c0-0.4,0.1-0.7,0.2-1.1c0.4-1.5,0.5-3,0.5-4.3c-0.1-3.6-0.7-6.8-1.9-9.7
		c0.8-0.6,1.1-1.6,1-2.7c-0.1-0.7-0.4-1.3-0.6-1.8c-0.9-1.6-1.7-3.2-2.6-4.7L76.7,1L76.1-0.1L76.1-0.1z"/>
</g>
<g>
	<g>
		
			<ellipse transform="matrix(0.7071 -0.7071 0.7071 0.7071 -30.9195 75.3534)" class="st24" cx="75.5" cy="75" rx="72.9" ry="72.9"/>
		<path class="st25" d="M75.5,3.5C115,3.5,147,35.5,147,75s-32,71.5-71.5,71.5S4,114.5,4,75S36,3.5,75.5,3.5 M75.5,0.7
			C34.5,0.7,1.2,34,1.2,75s33.3,74.3,74.3,74.3S149.8,116,149.8,75S116.5,0.7,75.5,0.7L75.5,0.7z"/>
	</g>
	<circle class="st26" cx="75.5" cy="75" r="68.4"/>
</g>
<g>
	<path class="st25" d="M109.8,117.5c-1.6-1.1-1.4-2.5-1.4-3.1c0-0.1,0-0.1,0-0.2l0.1-3c0.2-5.6,0.5-11.2,0.8-16.9c0-0.1,0-0.3,0-0.4
		c0-0.8,0-1.8,0.8-2.6c0.3-0.3,0.9-0.7,1.9-0.7c0.2,0,0.3,0,0.5,0c3.1,0.4,3.6,2.4,3.4,3.9l0,0.1c-0.2,2,0.1,2.1,0.6,2.2
		c0.1,0,0.2,0,0.3,0c0.8,0,1.5-0.7,2-2.1c1.8-4.5,1.5-5.6-1.9-8.2C109,80.4,99.1,76.7,87,75c-4-0.5-8-0.8-11.8-0.8
		c-12,0-23.4,2.7-33.8,7.9c-3.7,1.9-6.7,4-9.1,6.5c-0.7,0.7-0.9,2.5-0.4,4.4c0.5,1.9,1.5,3.5,2.6,3.8c0.2,0.1,0.4,0.1,0.5,0.1
		c0.1,0,0.3,0,0.5-0.7c0.1-0.4,0.1-0.8,0.1-1.3c0-0.5,0-1,0.1-1.5c0.3-2.4,2.5-2.8,3.5-3l0.3,0c0.2,0,0.3,0,0.5,0
		c0.8,0,2.1,0.3,2.1,2.6l0,0.2c0.4,7.5,0.7,15,1.1,22.5c0,0.4-0.1,0.8-0.2,1.1c0,0.1,0,0.1-0.1,0.2l-0.4,1.4L41,118
		c-1.6-0.5-1.9-1.8-2.1-2.5c0-0.2-0.1-0.4-0.2-0.5c-0.1-0.1-0.2-0.3-0.3-0.4c-0.4-0.6-0.5-0.8-0.6-0.8c-6.6-0.2-10.4-4.7-13.5-8.9
		c-4.8-6.5-5.4-13.6-1.8-20.5c3.1-5.9,3.4-10.8,1.1-15.5c-0.6-1.3-0.7-2.6-0.1-3.8l0.5-1c1.3-2.6,2.6-5.4,4.3-7.9
		c0.3-0.4,1.1-1.6,2.4-1.6c1.1,0,1.9,0.8,2.4,2.3c0.6,1.7,1,2.9,1.5,4.1c0.8,2.1,1.7,2.3,2.5,2.3c0.2,0,0.4,0,0.6-0.1
		c0.9-0.2,2.2-0.6,2.5-3.1c0.4-2.9-0.1-6.1-1.6-9.9c-1.1-3.1-0.6-5.2,1.7-7.2c1.4-1.1,2.7-2.4,3.9-3.6c0.8-0.8,1.6-1.6,2.4-2.3
		c0.6-0.5,1.4-1.2,2.3-1.2c0.9,0,2.1,0.5,2.3,3.1c0.2,2.7,0.6,5.5,0.9,8.2l0.2,1.9c0.3,2.3,0.7,4,1.5,5.4c0.7,1.4,1.8,2.2,2.9,2.2
		c1,0,2-0.6,2.9-1.8c1.2-1.7,1.6-3.5,1.4-5.4c-0.2-1.5-0.3-3-0.5-4.5c-0.4-4.5-0.8-8.7-2.7-12.6c-0.4-0.8-1-2.7,1.5-4
		c4.5-2.3,8.8-5.1,13-7.9l1.3-0.9c0.7-0.5,1.4-0.7,2.1-0.7c1.1,0,1.9,0.6,2.6,1c4.3,2.8,8.7,5.8,13.3,8.2c2.1,1.1,2.7,2.5,1.8,4.7
		c-2,5.1-2.6,10.5-2.8,17c-0.1,2,0.4,3.6,1.3,5c0.8,1.1,1.8,1.8,2.8,1.8c1.1,0,2.2-0.8,2.8-2.2c1.3-2.9,1.7-6,2-9.3
		c0.1-0.8,0.2-1.7,0.3-2.5c0.1-0.8,0.2-1.7,0.2-2.5c0-0.5,0.1-1,0.1-1.5c0.2-2.4,1.8-2.6,2.3-2.6c0.6,0,1.3,0.3,1.9,0.8
		c3.2,2.5,6,5.5,8.4,8.1c1.4,1.5,0.7,3.2,0.4,4c-0.8,1.8-1.2,3.8-1.5,5.8c-0.2,0.9-0.3,1.8-0.5,2.7c-0.3,1.2-0.2,2.5,0.3,3.8
		c0.7,1.8,1.5,2.2,2.6,2.2l0.1,0c0.8,0,1.7-0.2,2.4-1.8c0.6-1.4,1.1-2.9,1.8-4.6c0.3-0.8,0.6-1.5,0.9-2.4l0.9-2.4l1.6,2
		c2.8,3.7,4.6,7.4,6.3,11l0.1,0.3c0.7,1.6,0.1,2.9-0.4,3.8l-0.1,0.2c-1.9,4-1.8,8.2,0.5,13.2c0.2,0.4,0.4,0.8,0.6,1.2
		c0.8,1.8,1.7,3.6,2.1,5.6c2.3,10.5-5.5,20.5-13.9,23.8c-0.4,0.2-0.9,0.3-1.3,0.5c-2.1,0.7-3.2,1.2-3.6,3l-0.5,2.1L109.8,117.5z"/>
	<path class="st27" d="M75.7,20.4c0.6,0,1.2,0.3,1.8,0.8c4.4,2.9,8.8,5.8,13.5,8.3c1.4,0.7,1.7,1.4,1.1,2.9
		c-2.2,5.6-2.7,11.6-2.9,17.5c-0.1,2.1,0.4,4.1,1.6,5.8c1.1,1.6,2.6,2.4,4,2.4c1.6,0,3.2-1,4.1-3c1.8-3.9,1.9-8.1,2.4-12.3
		c0.2-1.4,0.2-2.7,0.4-4.1c0.1-0.9,0.4-1.3,0.8-1.3c0.3,0,0.7,0.2,1.1,0.5c3,2.4,5.6,5.1,8.2,7.9c0.8,0.8,0.5,1.6,0.1,2.4
		c-1.2,2.8-1.5,5.9-2.2,8.8c-0.4,1.6-0.2,3.1,0.4,4.6c0.7,1.8,1.8,3,3.8,3.1c0.1,0,0.1,0,0.2,0c1.8,0,3-1,3.7-2.6
		c0.9-2.1,1.7-4.3,2.7-7c2.8,3.7,4.6,7.4,6.3,11c0.5,1-0.1,1.9-0.5,2.8c-2.3,4.9-1.7,9.6,0.5,14.4c1,2.1,2.1,4.2,2.6,6.5
		c2,9.4-4.8,18.9-13,22.1c-2.5,1-5.1,1.3-5.8,4.4c-1.1-0.8-0.8-1.5-0.7-2.1c0.3-6.6,0.6-13.3,0.9-19.9c0-1-0.3-2.4,1.3-2.4
		c0.1,0,0.2,0,0.4,0c1.3,0.2,2.3,0.6,2.2,2.4c-0.1,1.5-0.3,3.5,1.7,3.8c0.2,0,0.4,0.1,0.6,0.1c1.7,0,2.7-1.4,3.3-2.9
		c2-4.9,1.7-6.8-2.3-9.9c-9.1-7-19.6-10.4-30.8-11.8c-4-0.5-8-0.8-12-0.8c-11.9,0-23.4,2.5-34.4,8c-3.5,1.8-6.8,3.9-9.5,6.8
		c-2.4,2.5-0.5,9.5,2.7,10.5c0.3,0.1,0.7,0.2,0.9,0.2c1,0,1.6-0.7,1.8-1.8c0.2-0.9,0.1-2,0.2-2.9c0.2-1.5,1.6-1.6,2.7-1.8
		c0.1,0,0.2,0,0.2,0c0.8,0,0.7,0.9,0.7,1.5c0.4,7.5,0.7,15,1.1,22.5c0,0.3-0.1,0.5-0.2,0.9c-1.2-0.4-1-1.6-1.5-2.3
		c-0.5-0.8-0.9-1.8-2.1-1.9c-5.9-0.2-9.4-4.2-12.4-8.3c-4.3-5.8-5.2-12.2-1.6-19c2.9-5.4,4-11,1.1-16.8c-0.4-0.8-0.5-1.7-0.1-2.5
		c1.5-3,2.9-6,4.7-8.7c0.5-0.7,0.9-1,1.2-1c0.4,0,0.8,0.5,1.1,1.4c0.5,1.4,1,2.8,1.5,4.1c0.7,1.8,1.8,3.2,3.8,3.2
		c0.3,0,0.5,0,0.8-0.1c2.4-0.4,3.4-2.2,3.7-4.4c0.5-3.7-0.4-7.2-1.7-10.6c-0.9-2.4-0.7-4,1.3-5.6c2.2-1.9,4.3-4,6.4-6
		c0.6-0.5,1-0.8,1.4-0.8c0.5,0,0.8,0.6,0.9,1.8c0.3,3.4,0.7,6.8,1.1,10.2c0.2,2,0.7,4.1,1.6,5.9c1,2,2.6,3,4.2,3
		c1.4,0,2.9-0.8,4-2.4c1.3-1.9,1.9-4.1,1.6-6.4c-0.8-5.9-0.7-11.9-3.3-17.5c-0.5-1.1-0.1-1.6,0.8-2.1c5.1-2.6,9.7-5.7,14.5-8.9
		C74.9,20.5,75.3,20.4,75.7,20.4 M75.7,17.6c-1,0-1.9,0.3-2.9,0.9l-1.4,0.9c-4.1,2.7-8.4,5.6-12.8,7.8c-2.4,1.2-3.2,3.5-2.1,5.8
		c1.7,3.7,2.1,7.8,2.5,12.1c0.1,1.5,0.3,3,0.5,4.5c0.2,1.5-0.2,3-1.1,4.4c-0.5,0.8-1.2,1.2-1.7,1.2c-0.6,0-1.2-0.5-1.6-1.4
		c-0.7-1.3-1.1-2.8-1.3-4.9L53.6,47c-0.3-2.7-0.7-5.4-0.9-8.2c-0.3-4.1-2.9-4.4-3.7-4.4c-1.4,0-2.6,0.9-3.3,1.5
		c-0.8,0.8-1.7,1.6-2.5,2.3c-1.3,1.3-2.5,2.5-3.9,3.6c-3.6,3.1-2.9,6.5-2.1,8.7c1.4,3.6,1.8,6.6,1.5,9.3c-0.2,1.7-0.9,1.8-1.3,1.9
		c-0.1,0-0.2,0-0.3,0c-0.2,0-0.6,0-1.2-1.4c-0.4-1.1-0.9-2.4-1.4-4c-1-2.9-2.8-3.3-3.8-3.3c-1.3,0-2.5,0.8-3.6,2.2
		c-1.8,2.6-3.1,5.4-4.5,8.1l-0.5,1c-0.8,1.6-0.7,3.4,0.1,5.1c2.1,4.3,1.8,8.8-1.1,14.2c-3.9,7.4-3.3,15,1.9,22
		c2.3,3.1,6.5,8.9,14,9.4c0,0,0.1,0.1,0.1,0.1c0.1,0.1,0.1,0.2,0.2,0.4c0,0.1,0,0.1,0.1,0.2c0.2,0.7,0.8,2.7,3.1,3.4l2.8,0.8
		l0.7-2.8c0,0,0-0.1,0-0.1c0.1-0.3,0.3-0.9,0.3-1.6c-0.3-7.2-0.7-14.8-1.1-22.5c0,0,0-0.1,0-0.1c0-3.9-3.2-4-3.5-4
		c-0.2,0-0.5,0-0.7,0.1l-0.3,0c-1,0.2-4.2,0.7-4.7,4.1c-0.1,0.5-0.1,1-0.1,1.4c-0.3-0.5-0.6-1.1-0.8-2c-0.4-1.8-0.1-2.9,0.1-3
		c2.3-2.4,5.2-4.4,8.7-6.2c10.2-5.1,21.4-7.7,33.1-7.7c3.8,0,7.7,0.3,11.6,0.8c11.9,1.6,21.6,5.3,29.4,11.3c2.8,2.1,3,2.5,1.4,6.6
		c-0.1,0.1-0.1,0.3-0.2,0.4l0-0.1c0.1-1.1,0-4.9-4.7-5.5c-0.2,0-0.5,0-0.7,0c-1.5,0-2.4,0.6-2.9,1.1c-1.2,1.2-1.2,2.8-1.2,3.6
		c0,0.1,0,0.2,0,0.3c-0.3,5.7-0.5,11.5-0.8,17.1l-0.1,2.8c0,0,0,0.1,0,0.1c-0.1,0.7-0.3,2.8,1.9,4.4l3.5,2.5l0.9-4.2
		c0.2-1,0.5-1.2,2.7-1.9c0.4-0.2,0.9-0.3,1.4-0.5c9-3.5,17.2-14.2,14.8-25.4c-0.5-2.2-1.4-4.1-2.2-5.9c-0.2-0.4-0.4-0.8-0.6-1.2
		c-2.1-4.5-2.2-8.4-0.5-12l0.1-0.2c0.5-1,1.4-2.9,0.4-5l-0.1-0.3c-1.8-3.7-3.6-7.5-6.5-11.3l-3.1-4l-1.8,4.8
		c-0.3,0.8-0.6,1.6-0.9,2.4c-0.6,1.7-1.1,3.1-1.7,4.5c-0.4,0.9-0.7,0.9-1.1,0.9l-0.1,0c-0.4,0-0.8,0-1.3-1.3c-0.4-1-0.5-2-0.3-2.9
		c0.2-0.9,0.4-1.9,0.6-2.8c0.4-2,0.7-3.8,1.4-5.5c0.4-0.8,1.4-3.3-0.6-5.5c-2.4-2.6-5.3-5.6-8.5-8.2c-0.9-0.7-1.9-1.1-2.8-1.1
		c-1.5,0-3.4,1-3.7,3.9c-0.1,0.5-0.1,1-0.1,1.6c-0.1,0.9-0.1,1.7-0.2,2.5c-0.1,0.9-0.2,1.7-0.3,2.6c-0.3,3.2-0.6,6.2-1.9,8.9
		c-0.4,0.9-1,1.4-1.5,1.4c-0.5,0-1.2-0.4-1.7-1.2C92.3,53,92,51.6,92,50c0.2-6.4,0.7-11.6,2.7-16.6c0.8-2,1-4.7-2.5-6.5
		c-4.6-2.3-9-5.3-13.2-8.1C78.3,18.3,77.2,17.6,75.7,17.6L75.7,17.6z"/>
</g>
</svg>
