<?xml version="1.0" encoding="utf-8"?>
<!-- Generator: Adobe Illustrator 22.0.0, SVG Export Plug-In . SVG Version: 6.00 Build 0)  -->
<svg version="1.1" id="Camada_1" xmlns="http://www.w3.org/2000/svg" xmlns:xlink="http://www.w3.org/1999/xlink" x="0px" y="0px"
	 viewBox="0 0 150 150" style="enable-background:new 0 0 150 150;" xml:space="preserve">
<style type="text/css">
	.st0{fill:#8A8B8F;}
	.st1{fill:#22325D;}
	.st2{fill:#737B90;}
	.st3{fill:#1A2D5E;}
	.st4{fill:#F1F2F6;}
	.st5{fill:#F5F5F5;}
</style>
<g>
	<path class="st0" d="M75,150.1c-41.5,0-75.1-33.7-75-75.2c0-41.5,33.7-75.1,75.2-75c41.3,0.1,74.8,33.7,74.8,75.2
		C149.9,116.4,116.3,150.1,75,150.1z M74.8,145.6c38.4,0.5,70.5-31.7,70.8-70.2C145.9,36.4,114,3.9,75.1,3.8
		c-38.8,0-71,31.3-70.9,70.9C4.2,116,38.1,146,74.8,145.6z"/>
	<path class="st1" d="M74.8,145.6C38.1,146,4.2,116,4.1,74.8c0-39.6,32.1-70.9,70.9-70.9c38.9,0,70.9,32.5,70.5,71.6
		C145.3,113.9,113.2,146.1,74.8,145.6z M75,6.3C38.2,5.8,6.6,36.3,6.5,74.5c-0.1,38,30.4,68.8,68.2,68.9
		c37.7,0.1,68.6-30.1,68.6-68.7C143.3,35.6,111.3,5.9,75,6.3z"/>
	<path class="st2" d="M75,6.3c36.3-0.4,68.3,29.3,68.3,68.4c0,38.6-30.9,68.8-68.6,68.7c-37.8-0.1-68.3-30.9-68.2-68.9
		C6.6,36.3,38.2,5.8,75,6.3z M7.9,74.6c-0.6,36.7,30.1,67.3,66.7,67.5c36.9,0.2,67.5-30.3,67.5-67.3c-0.1-37.2-30.1-67.4-67.2-67.4
		C37.7,7.4,7.5,38.1,7.9,74.6z"/>
	<path class="st3" d="M7.9,74.6C7.5,38.1,37.7,7.4,74.8,7.4c37.1,0,67.1,30.2,67.2,67.4c0.1,37-30.5,67.5-67.5,67.3
		C37.9,141.9,7.3,111.3,7.9,74.6z M78.2,18.2c-0.9,0.1-2.3,0.1-3.7,0.2c-34,2.3-58.4,34.7-51.1,68c5.5,25.1,25.9,43.1,51.6,44.8
		c16.5,1.1,30.8-4.5,42.8-15.9c1.6-1.5,2.2-3.3,0.7-5.1c-1.5-1.8-3.3-1.6-5.1-0.3c-1.6,1.1-3.2,2.1-4.9,3c-0.9,0.5-2,1.7-2.8,0.9
		c-1-1-1.8-2.4-1.4-4.1c0.1-0.5,0.3-1,0.4-1.4c4.6-15.3,11-29.9,18.4-44c3.9-7.5,0.1-16.1-8.1-18.1c-4.7-1.1-9.3-0.3-13.9,0.9
		c-5.3,1.4-10.6,2.4-16.1,2.4c-8.1,0-13.7-3.6-17.2-10.8c-0.6-1.3-0.6-1.9,0.8-2.6c8.5-4.1,17.3-5.6,26.7-4.1
		c6.6,1.1,12.6,3.6,18,7.4c1.8,1.2,3.4,1.3,5-0.3c1.4-1.4,1.1-3.4-0.6-5.1c-0.3-0.4-0.7-0.7-1.1-1C105.6,23.2,93.1,18.5,78.2,18.2z"
		/>
	<path class="st4" d="M78.2,18.2c14.9,0.3,27.5,5.1,38.2,14.7c0.4,0.3,0.7,0.7,1.1,1c1.7,1.7,1.9,3.7,0.6,5.1
		c-1.5,1.6-3.2,1.5-5,0.3c-5.4-3.9-11.4-6.4-18-7.4c-9.3-1.5-18.2-0.1-26.7,4.1c-1.4,0.7-1.4,1.3-0.8,2.6
		c3.5,7.3,9.2,10.8,17.2,10.8c5.5,0,10.8-1,16.1-2.4c4.6-1.2,9.2-2,13.9-0.9c8.2,2,12,10.7,8.1,18.1c-7.4,14.1-13.8,28.7-18.4,44
		c-0.1,0.5-0.3,1-0.4,1.4c-0.4,1.7,0.5,3.1,1.4,4.1c0.8,0.9,1.9-0.4,2.8-0.9c1.7-0.9,3.3-1.9,4.9-3c1.8-1.3,3.6-1.5,5.1,0.3
		c1.5,1.8,1,3.6-0.7,5.1c-12,11.4-26.3,17-42.8,15.9c-25.7-1.7-46.1-19.7-51.6-44.8c-7.3-33.3,17.1-65.7,51.1-68
		C75.9,18.3,77.3,18.2,78.2,18.2z M79.5,128.5c5.2,0.2,11.3-1,17.3-3.1c7-2.6,13.2-6.5,18.7-11.6c0.5-0.5,1.4-1,0.7-1.8
		c-0.6-0.6-1.2,0.2-1.7,0.5c-0.4,0.2-0.7,0.5-1,0.7c-9.5,6.1-19.9,8.7-31.2,7.3C57,117.1,39.1,94.1,42.3,68.9
		c3.9-30.5,35.5-48.7,63.9-36.6c2.8,1.2,5.4,2.7,7.9,4.4c0.6,0.4,1.2,0.9,1.8,0.3c0.7-0.7-0.3-1.1-0.6-1.6c-0.1-0.2-0.4-0.4-0.5-0.5
		c-12.5-11-27-15.6-43.5-13.5c-28.8,3.7-49.7,30.8-46,59.7C28.6,108.4,51,128.4,79.5,128.5z M65.6,40.6c-0.4,3.7-0.8,6.9-1.2,10
		c-0.1,1-0.2,2,0.9,2.6c2,1.1,1.8,2.9,1.3,4.6c-0.3,1.1-0.7,2.2-0.7,3.4c-0.1,4.9-0.2,9.7,0.5,14.6c1.6,11.7,5.8,22.4,13.5,31.4
		c1.6,1.8,3.1,3.4,0.4,6.2c1.9-0.6,3.6,0.4,4.2-0.8c0.9-1.9,2.4-1.5,3.8-1.5c2.6,0,5.2,0,7.8,0c0.6,0,1.6-0.3,1.9,0.4
		c0.9,2.4,2.7,1.5,4.4,1.5c-1.3-2.5-1.3-2.5-0.5-5.1c4.8-15.8,11.3-30.8,19-45.4c2.7-5.1,0.1-11.7-5.4-13.6c-2.7-0.9-5.5-1-8.2-0.5
		c-3.9,0.7-7.8,1.8-11.8,2.6C83.7,53.2,72.8,53.2,65.6,40.6z M62.9,39.5C46.4,50.5,38.1,75.9,51,97.3c10.2,16.8,36.5,26.7,49.5,18.4
		c-2.3,0.3-4.2,0.2-5.2-1.9c-2.9,0.9-6.5-2-8.8,1.7c-0.2,0.3-0.9,0.3-1.4,0.3c-1.8,0-3.5-0.1-5.3,0c-1.6,0.1-1.7-0.5-1.4-1.9
		c0.4-1.4,1.3-2.8-0.2-4.4C66.9,96.4,62.7,80.9,63,63.9c0-2.1-0.1-4.2,0.8-6.2c0.6-1.2,0.4-2.1-0.7-2.7c-1.4-0.8-1.6-1.8-1.4-3.3
		C62.2,47.7,62.5,43.8,62.9,39.5z"/>
	<path class="st0" d="M79.5,128.5c-28.4-0.2-50.8-20.2-54.3-47.4c-3.7-28.9,17.2-56.1,46-59.7c16.5-2.1,31,2.5,43.5,13.5
		c0.2,0.2,0.4,0.3,0.5,0.5c0.4,0.5,1.3,0.9,0.6,1.6c-0.6,0.6-1.2,0.1-1.8-0.3c-2.5-1.7-5.1-3.2-7.9-4.4c-28.3-12.1-60,6.1-63.9,36.6
		c-3.2,25.1,14.7,48.2,39.8,51.4c11.3,1.5,21.6-1.2,31.2-7.3c0.4-0.2,0.7-0.5,1-0.7c0.5-0.3,1.1-1.1,1.7-0.5
		c0.7,0.8-0.2,1.4-0.7,1.8c-5.4,5.1-11.6,9.1-18.7,11.6C90.8,127.6,84.6,128.7,79.5,128.5z"/>
	<path class="st0" d="M65.6,40.6C72.8,53.2,83.7,53.2,95.4,51c3.9-0.7,7.8-1.8,11.8-2.6c2.7-0.5,5.5-0.4,8.2,0.5
		c5.5,1.9,8.1,8.4,5.4,13.6c-7.7,14.6-14.2,29.6-19,45.4c-0.8,2.6-0.8,2.6,0.5,5.1c-1.7,0-3.5,0.9-4.4-1.5c-0.2-0.7-1.2-0.4-1.9-0.4
		c-2.6,0-5.2,0-7.8,0c-1.4,0-2.9-0.4-3.8,1.5c-0.6,1.2-2.3,0.2-4.2,0.8c2.7-2.8,1.2-4.4-0.4-6.2c-7.8-9-11.9-19.7-13.5-31.4
		c-0.7-4.8-0.6-9.7-0.5-14.6c0-1.2,0.4-2.3,0.7-3.4c0.5-1.8,0.7-3.5-1.3-4.6c-1.1-0.6-1-1.6-0.9-2.6C64.8,47.5,65.1,44.4,65.6,40.6z
		 M75.4,64.2c-0.3,0-0.5,0.1-0.8,0.1c-0.1,2.4-0.2,4.8-0.4,7.1c-0.7,9.8,1.3,19,6.2,27.6c1.3,2.3,2.9,4.5,4.9,6.4
		c0.3,0.3,0.8,0.7,1,0.6c0.5-0.1,0.7-0.7,0.7-1.2c-0.1-0.7-0.3-1.3-0.5-2c-2.1-7.2-4.1-14.4-6.2-21.5C78.7,75.5,77.1,69.8,75.4,64.2
		z M87.7,102.6c1.4-2.1,1.9-3.8,1.2-6.1c-2.8-9.2-5.4-18.5-8-27.8C80,65.6,79,62.5,78,59.4c-0.2-0.7-0.5-1-1.2-1
		c-0.8,0-0.9,0.7-0.9,1.3c0,1.2-0.1,2.4,0.2,3.5c2.3,6.5,3.9,13.2,5.9,19.7C83.9,89.3,85.8,95.8,87.7,102.6z M90.2,97.1
		c1.5-1.9,2-3.4,1.4-5.4c-1.9-6.2-3.6-12.5-5.4-18.8c-1.2-4.2-2.5-8.4-3.6-12.6c-0.4-1.5-1.4-1.6-2.5-1.4c-1.1,0.2-0.5,1-0.3,1.6
		C83.2,72.6,86.7,84.7,90.2,97.1z M94.7,88.8c-0.1-0.5-0.1-0.8-0.2-1.1c-2.6-9.2-5.3-18.3-7.9-27.5c-0.3-1.2-1-1.3-2-1.1
		c-1.4,0.3-0.9,1.1-0.7,1.9c1,3.5,2,7.1,3.1,10.6c1.7,6.1,3.5,12.2,5.3,18.3c0.2,0.6,0.1,1.6,1,1.5c0.4,0,0.8-0.8,1-1.3
		C94.5,89.6,94.6,89.1,94.7,88.8z M95.7,87.4c1.2-1.7,2.2-2.5,1.7-4.3c-2.3-7.9-4.6-15.8-6.8-23.7c-0.4-1.3-1.1-1.3-2.1-1.1
		c-1.3,0.3-0.9,1.1-0.6,2c0.6,2,1.1,4,1.7,6C91.6,73.2,93.5,80.1,95.7,87.4z M98.5,82.8c1.4-1.5,2.2-2.5,1.7-4.3
		c-2-6.7-3.9-13.5-5.9-20.3c-0.2-0.7-0.2-1.6-1.4-1.2c-1,0.3-1.6,0.8-1.3,2C93.9,66.8,96.1,74.6,98.5,82.8z M103.3,75.6
		c-0.1-0.5-0.2-1-0.3-1.5c-1.6-5.5-3.2-10.9-4.7-16.4c-0.3-1-0.3-2.3-2-1.9c-1.8,0.5-0.9,1.7-0.7,2.6c1.6,5.9,3.3,11.7,5,17.6
		c0.2,0.7-0.4,2,0.9,1.9C102.7,77.9,103.2,76.7,103.3,75.6z M104.3,74.6c1.8-1.4,2.1-2.7,1.6-4.5c-1.4-4.7-2.7-9.5-4.1-14.2
		c-0.2-0.7-0.1-1.8-1.5-1.4c-1.1,0.3-1.5,0.9-1.2,2C100.8,62.4,102.5,68.4,104.3,74.6z M109.4,68c-0.1-0.5-0.2-1-0.3-1.5
		c-1.1-3.8-2.3-7.5-3.3-11.3c-0.3-1.2-0.7-1.8-2-1.5c-1.5,0.3-0.9,1.3-0.7,2.1c1.2,4.2,2.4,8.3,3.6,12.5c0.2,0.7-0.4,2,0.9,1.9
		C108.7,70.3,109.2,69.2,109.4,68z M117.2,59.2c-0.1-3.7-2.7-6-5.4-6c-1.2,0-1.1,0.6-0.9,1.5c0.7,2.6,1.7,5.1,2,7.8
		c0.1,0.5,0.4,1.7,1.5,0.8C116,62,117.3,60.5,117.2,59.2z M106.3,53.5c0.4,1.1,0.7,2.1,1,3c0.9,3,1.8,6.1,2.7,9.1
		c0.4,1.4,0.9,1.4,1.8,0.4c0.6-0.7,0.8-1.2,0.5-2.2c-0.9-2.8-1.7-5.6-2.3-8.4C109.5,53.2,108.4,52.8,106.3,53.5z"/>
	<path class="st3" d="M62.9,39.5c-0.4,4.3-0.7,8.2-1.3,12.1c-0.2,1.6,0.1,2.6,1.4,3.3c1.2,0.6,1.3,1.5,0.7,2.7
		c-0.9,1.9-0.7,4.1-0.8,6.2c-0.3,17,3.9,32.6,15.3,45.7c1.4,1.6,0.6,3,0.2,4.4c-0.4,1.4-0.3,2,1.4,1.9c1.8-0.1,3.5,0,5.3,0
		c0.5,0,1.2,0,1.4-0.3c2.4-3.7,6-0.8,8.8-1.7c1.1,2.1,2.9,2.2,5.2,1.9c-13,8.3-39.4-1.6-49.5-18.4C38.1,75.9,46.4,50.5,62.9,39.5z"
		/>
	<path class="st5" d="M75.4,64.2c1.7,5.7,3.3,11.4,5,17.1c2.1,7.2,4.1,14.3,6.2,21.5c0.2,0.6,0.4,1.3,0.5,2c0.1,0.5-0.2,1.1-0.7,1.2
		c-0.3,0.1-0.7-0.3-1-0.6c-1.9-1.9-3.5-4.1-4.9-6.4c-4.9-8.5-6.8-17.8-6.2-27.6c0.2-2.4,0.3-4.8,0.4-7.1
		C74.9,64.2,75.2,64.2,75.4,64.2z"/>
	<path class="st5" d="M87.7,102.6c-2-6.8-3.8-13.3-5.7-19.8c-2-6.6-3.5-13.3-5.9-19.7c-0.4-1.1-0.2-2.3-0.2-3.5
		c0-0.6,0.1-1.2,0.9-1.3c0.7,0,1,0.3,1.2,1c0.9,3.1,2,6.2,2.9,9.4c2.7,9.3,5.2,18.6,8,27.8C89.6,98.8,89.2,100.5,87.7,102.6z"/>
	<path class="st5" d="M90.2,97.1c-3.6-12.5-7-24.5-10.5-36.6c-0.2-0.6-0.7-1.4,0.3-1.6c1.1-0.2,2.1-0.1,2.5,1.4
		c1.1,4.2,2.4,8.4,3.6,12.6c1.8,6.3,3.5,12.6,5.4,18.8C92.2,93.8,91.7,95.2,90.2,97.1z"/>
	<path class="st5" d="M94.7,88.8c-0.1,0.4-0.2,0.9-0.5,1.3c-0.3,0.5-0.7,1.3-1,1.3c-0.9,0.1-0.8-0.9-1-1.5
		c-1.8-6.1-3.5-12.2-5.3-18.3c-1-3.5-2-7.1-3.1-10.6c-0.2-0.8-0.7-1.6,0.7-1.9c1.1-0.2,1.7-0.2,2,1.1c2.6,9.2,5.2,18.4,7.9,27.5
		C94.6,88,94.7,88.3,94.7,88.8z"/>
	<path class="st5" d="M95.7,87.4c-2.1-7.4-4.1-14.2-6.1-21c-0.6-2-1.1-4-1.7-6c-0.2-0.8-0.6-1.7,0.6-2c1-0.2,1.7-0.2,2.1,1.1
		c2.2,7.9,4.4,15.8,6.8,23.7C97.9,84.9,96.8,85.8,95.7,87.4z"/>
	<path class="st5" d="M98.5,82.8c-2.4-8.2-4.6-16-6.9-23.8c-0.4-1.2,0.3-1.7,1.3-2c1.2-0.4,1.2,0.5,1.4,1.2
		c1.9,6.8,3.8,13.5,5.9,20.3C100.7,80.3,99.9,81.3,98.5,82.8z"/>
	<path class="st5" d="M103.3,75.6c-0.1,1.2-0.6,2.3-1.8,2.4c-1.3,0.1-0.7-1.2-0.9-1.9c-1.7-5.9-3.4-11.7-5-17.6
		c-0.3-0.9-1.1-2.1,0.7-2.6c1.7-0.4,1.7,0.9,2,1.9c1.6,5.5,3.2,10.9,4.7,16.4C103.1,74.6,103.2,75.1,103.3,75.6z"/>
	<path class="st5" d="M104.3,74.6c-1.8-6.2-3.5-12.1-5.2-18.1c-0.3-1.1,0.1-1.7,1.2-2c1.4-0.4,1.3,0.7,1.5,1.4
		c1.4,4.7,2.7,9.5,4.1,14.2C106.5,71.8,106.1,73.2,104.3,74.6z"/>
	<path class="st5" d="M109.4,68c-0.1,1.2-0.7,2.3-1.8,2.3c-1.3,0.1-0.7-1.3-0.9-1.9c-1.2-4.2-2.4-8.3-3.6-12.5
		c-0.2-0.8-0.9-1.8,0.7-2.1c1.3-0.3,1.7,0.2,2,1.5c1,3.8,2.2,7.5,3.3,11.3C109.2,67,109.3,67.5,109.4,68z"/>
	<path class="st5" d="M117.2,59.2c0.1,1.2-1.2,2.7-2.8,4.1c-1.1,0.9-1.5-0.3-1.5-0.8c-0.3-2.7-1.3-5.2-2-7.8
		c-0.2-0.8-0.3-1.4,0.9-1.5C114.5,53.2,117.1,55.6,117.2,59.2z"/>
	<path class="st5" d="M106.3,53.5c2.1-0.8,3.2-0.3,3.7,1.9c0.6,2.8,1.5,5.7,2.3,8.4c0.3,1,0.1,1.5-0.5,2.2c-0.9,1-1.4,0.9-1.8-0.4
		c-0.8-3.1-1.8-6.1-2.7-9.1C107,55.6,106.7,54.7,106.3,53.5z"/>
</g>
</svg>
